<?xml version='1.0' encoding='utf-8'?>
<svg xmlns="http://www.w3.org/2000/svg" width="1920" height="1080" viewBox="0 0 1920 1080" data-theme="light" data-semantic-intent="compare" data-relation-type="comparison" data-site-visual-identity="signal-cobalt">
  <style>
        @font-face {
            font-family: 'Inter';
            src: url('assets/fonts/Inter-Regular.ttf') format('truetype');
            font-weight: 400;
            font-style: normal;
            font-display: swap;
        }
        @font-face {
            font-family: 'Inter';
            src: url('assets/fonts/Inter-Bold.ttf') format('truetype');
            font-weight: 600;
            font-style: normal;
            font-display: swap;
        }
        @font-face {
            font-family: 'Inter';
            src: url('assets/fonts/Inter-Bold.ttf') format('truetype');
            font-weight: 800;
            font-style: normal;
            font-display: swap;
        }
        
:root {
    --background: #f8fafc;
    --panel: #ffffff;
    --primary-text: #0f172a;
    --muted-text: #64748b;
    --inverse-text: #ffffff;
    --border: #e2e8f0;
    --shadow-color: #000000;
    --icon-pad-bg: #1e293b;
    --art-glow: #0891b2;
    --art-glow-opacity: 0.10;
    --art-sheen: #ffffff;
    --art-sheen-opacity: 0.34;
    --art-shadow: #0f172a;
    --art-shadow-opacity: 0.14;
    --art-muted-line: #94a3b8;
    --art-panel-tint: #f1f5f9;
    --semantic-risk: #b91c1c;
    --semantic-warning: #c2410c;
    --semantic-uncertain: #a16207;
    --semantic-evidence: #1d4ed8;
    --semantic-claim: #6d28d9;
    --semantic-positive: #15803d;
    --semantic-outcome: #0e7490;
    --font-family: 'Inter', 'Segoe UI', 'Kalam', Roboto, Helvetica, Arial, sans-serif;
    --radius-xl: 16px;
    --font-family-headline: 'Segoe UI Variable Display', 'Aptos Display', 'Inter', 'Segoe UI', Helvetica, Arial, sans-serif;
    --font-family-body: 'Segoe UI Variable Text', 'Aptos', 'Inter', 'Segoe UI', Helvetica, Arial, sans-serif;
    --font-heading: var(--font-family-headline);
    --font-body: var(--font-family-body);
    --font-size-h1: 64px;
    --font-size-h2: 42px;
    --font-size-h3: 29px;
    --font-size-body: 21px;
    --font-size-caption: 17px;
    --secondary-text: var(--muted-text);
    --panel-border: var(--border);
    --font-weight-normal: 400;
    --font-weight-medium: 500;
    --font-weight-semibold: 600;
    --font-weight-bold: 700;
    --spacing-gutter-pct: 0.07;
    --spacing-top-pct: 0.15;
    --spacing-bottom-pct: 0.07;
    --spacing-title-y-pct: 0.055;
    --accent-1: #1d4ed8;
    --accent-2: #2563eb;
    --accent-3: #4f46e5;
    --accent-4: #6d28d9;
    --accent-5: #0369a1;
    --accent-6: #c2410c;
}
:root[data-theme="dark"] {
    --background: #0f172a;
    --panel: #1e293b;
    --primary-text: #f1f5f9;
    --muted-text: #94a3b8;
    --inverse-text: #0f172a;
    --border: #334155;
    --shadow-color: #000000;
    --icon-pad-bg: #1e293b;
    --art-glow: #7dd3fc;
    --art-glow-opacity: 0.18;
    --art-sheen: #ffffff;
    --art-sheen-opacity: 0.18;
    --art-shadow: #000000;
    --art-shadow-opacity: 0.28;
    --art-muted-line: #64748b;
    --art-panel-tint: #1e293b;
    --semantic-risk: #f87171;
    --semantic-warning: #fb923c;
    --semantic-uncertain: #fbbf24;
    --semantic-evidence: #60a5fa;
    --semantic-claim: #c084fc;
    --semantic-positive: #4ade80;
    --semantic-outcome: #22d3ee;
    --accent-1: #93c5fd;
    --accent-2: #60a5fa;
    --accent-3: #818cf8;
    --accent-4: #a78bfa;
    --accent-5: #38bdf8;
    --accent-6: #fb923c;
}
:root[data-theme="light"] {
    --background: #f8fafc;
    --panel: #ffffff;
    --primary-text: #0f172a;
    --muted-text: #64748b;
    --inverse-text: #ffffff;
    --border: #e2e8f0;
    --shadow-color: #000000;
    --icon-pad-bg: #1e293b;
    --art-glow: #0891b2;
    --art-glow-opacity: 0.10;
    --art-sheen: #ffffff;
    --art-sheen-opacity: 0.34;
    --art-shadow: #0f172a;
    --art-shadow-opacity: 0.14;
    --art-muted-line: #94a3b8;
    --art-panel-tint: #f1f5f9;
    --semantic-risk: #b91c1c;
    --semantic-warning: #c2410c;
    --semantic-uncertain: #a16207;
    --semantic-evidence: #1d4ed8;
    --semantic-claim: #6d28d9;
    --semantic-positive: #15803d;
    --semantic-outcome: #0e7490;
    --accent-1: #1d4ed8;
    --accent-2: #2563eb;
    --accent-3: #4f46e5;
    --accent-4: #6d28d9;
    --accent-5: #0369a1;
    --accent-6: #c2410c;
}</style>
  <rect x="0" y="0" width="1.92E+3" height="1.08E+3" fill="#252a34" stroke="none" id="programmatic_background"/>
  <line id="HEADER_DECOR" x1="960.0" x2="1080.0" y1="107.0" y2="107.0" stroke="var(--accent-1)" stroke-width="6" stroke-linecap="round"/>
  <defs>
    <pattern id="svg8914dc47-napkin-hatch" patternUnits="userSpaceOnUse" width="12" height="12">
      <path d="M -3 12 L 12 -3 M 0 15 L 15 0" fill="none" stroke="var(--primary-text)" stroke-width="1" stroke-opacity="0.05"/>
    </pattern>
    <filter id="svg8914dc47-shadow" x="-30%" y="-30%" width="160%" height="160%">
      <feDropShadow dx="0" dy="2" stdDeviation="3" flood-color="#000000" flood-opacity="0.08"/>
      <feDropShadow dx="0" dy="6" stdDeviation="10" flood-color="#000000" flood-opacity="0.12"/>
    </filter>
    <filter id="svg8914dc47-soft-glow" x="-40%" y="-40%" width="180%" height="180%">
      <feDropShadow dx="0" dy="0" stdDeviation="6" flood-color="#000000" flood-opacity="0.12"/>
    </filter>
    <radialGradient id="svg8914dc47-universal-edge-vignette" cx="50%" cy="50%" r="72%">
      <stop offset="0%" stop-color="var(--background)" stop-opacity="0"/>
      <stop offset="72%" stop-color="var(--background)" stop-opacity="0.12"/>
      <stop offset="100%" stop-color="var(--primary-text)" stop-opacity="0.08"/>
    </radialGradient>
    <linearGradient id="svg8914dc47-universal-surface-sheen" x1="0%" y1="0%" x2="100%" y2="100%">
      <stop offset="0%" stop-color="var(--art-sheen)" stop-opacity="var(--art-sheen-opacity)"/>
      <stop offset="46%" stop-color="var(--art-sheen)" stop-opacity="0.035"/>
      <stop offset="100%" stop-color="var(--art-panel-tint)" stop-opacity="0.14"/>
    </linearGradient>
    <radialGradient id="svg8914dc47-universal-icon-aura" cx="50%" cy="42%" r="64%">
      <stop offset="0%" stop-color="var(--art-glow)" stop-opacity="var(--art-glow-opacity)"/>
      <stop offset="100%" stop-color="var(--background)" stop-opacity="0"/>
    </radialGradient>
    <filter id="svg8914dc47-text-glow" x="-20%" y="-20%" width="140%" height="140%">
      <feDropShadow dx="0" dy="0" stdDeviation="2" flood-color="#000000" flood-opacity="0.4"/>
    </filter>
    <marker id="svg8914dc47-arrowhead" markerWidth="10" markerHeight="7" refX="9" refY="3.5" orient="auto" markerUnits="strokeWidth">
      <polygon points="0 0, 10 3.5, 0 7" fill="var(--muted-text)" opacity="0.6"/>
    </marker>
  </defs>
  <rect width="100%" height="100%" fill="var(--background)" id="CANVAS_BG"/>
  <rect width="100%" height="100%" fill="url(#svg8914dc47-napkin-hatch)"/>
  <rect id="UNIVERSAL_EDGE_VIGNETTE" width="100%" height="100%" fill="url(#svg8914dc47-universal-edge-vignette)" opacity="0.62"/>
  <text id="TITLE" x="960.0" y="59" text-anchor="middle" font-weight="800" font-size="58" fill="#0f172a" style="font-size: 69px; font-family: 'Segoe UI Variable Display', 'Aptos Display', 'Inter', 'Segoe UI', Helvetica, Arial, sans-serif; font-weight: 800; font-kerning: normal; font-feature-settings: &quot;kern&quot; 1, &quot;liga&quot; 1; letter-spacing:-1.2px;" data-final-font-size="69">
    <tspan x="960.0" dy="70.47px">Public Disclosure vs. Technical Secrets</tspan>
  </text>
  <rect id="TITLE_FRAME" x="134" y="44" width="1652" height="110" fill="none"/>
  <g id="DIAGRAM_SCALER">
    <line x1="960" y1="220" x2="960" y2="970" stroke="var(--border)" stroke-width="8" stroke-linecap="round" opacity="0.75"/>
    <line x1="960" y1="303.2" x2="914" y2="303.2" stroke="var(--accent-1)" stroke-width="4" stroke-linecap="round" opacity="0.55"/>
    <circle cx="960" cy="303.2" r="9" fill="var(--accent-1)" opacity="0.95" filter="url(#svg8914dc47-soft-glow)"/>
    <rect id="ITEM_1_BG" x="224.0" y="221.6" width="690.0" height="163.2" rx="81.6" fill="var(--panel)" stroke="var(--accent-1)" stroke-width="3" filter="url(#svg8914dc47-shadow)"/>
    <rect x="236.0" y="233.6" width="666.0" height="139.2" rx="69.6" fill="var(--accent-1)" fill-opacity="0.055"/>
    <rect x="894.0" y="221.6" width="20" height="163.2" rx="10" fill="var(--accent-1)" fill-opacity="0.24"/>
    <circle id="ITEM_1_PAD" cx="828.0" cy="303.2" r="42" fill="var(--icon-pad-bg)" stroke="var(--accent-1)" opacity="1" fill-opacity="0.9" stroke-width="2" stroke-opacity="0.72" data-badge-layer="pad"/>
    <circle id="ITEM_1_PAD_INNER" cx="828.0" cy="303.2" r="32.76" fill="var(--accent-1)" fill-opacity="0.12" stroke="none" data-badge-layer="tint"/>
    <circle cx="828.0" cy="303.2" r="33.6" fill="none" stroke="var(--accent-1)" stroke-width="3" stroke-dasharray="6 4" display="none" data-suppressed-decoration="redundant-badge-ring"/>
    <g id="ITEM_1_ICON" transform="translate(802.0, 277.2)" data-icon-size="52" stroke-linecap="round" stroke-linejoin="round" data-badge-treatment="clean">
      <g transform="translate(-11.398584070796458,-16.03716814159292) scale(2.31929203539823)">
        <path d="M25.34 7.68398C23.2959 7.68398 21.6389 9.34099 21.6389 11.385C21.6389 13.4291 23.2959 15.0861 25.34 15.0861C27.384 15.0861 29.041 13.4291 29.041 11.385C29.041 9.34099 27.384 7.68398 25.34 7.68398ZM20.621 11.385C20.621 8.77882 22.7338 6.66608 25.34 6.66608C27.9462 6.66608 30.0589 8.77882 30.0589 11.385C30.0589 13.9912 27.9462 16.104 25.34 16.104C22.7338 16.104 20.621 13.9912 20.621 11.385Z" fill="#D3D3D3"/>
        <path d="M24.19 17.675L26.12 12.655C26.32 12.135 26.2 11.535 25.8 11.135L21.08 6.41501C20.68 6.01501 20.09 5.89501 19.56 6.09501L14.54 8.02501C14.16 8.17501 13.81 8.39501 13.52 8.68501L2.42 19.785C1.86 20.345 1.86 21.245 2.42 21.795L10.42 29.795C10.98 30.355 11.88 30.355 12.43 29.795L23.53 18.695C23.82 18.405 24.04 18.065 24.19 17.675ZM19.21 13.015C18.52 12.325 18.52 11.215 19.21 10.525C19.9 9.83501 21.01 9.83501 21.7 10.525C22.39 11.215 22.39 12.325 21.7 13.015C21.01 13.695 19.89 13.695 19.21 13.015Z" fill="#FCD53F"/>
        <path d="M20.45 10.015C20.9 10.015 21.35 10.185 21.69 10.535C22.38 11.225 22.38 12.335 21.69 13.025C21.35 13.365 20.9 13.545 20.45 13.545C20 13.545 19.55 13.375 19.21 13.025C18.52 12.335 18.52 11.225 19.21 10.535C19.55 10.185 20 10.015 20.45 10.015ZM20.45 9.07501C19.73 9.07501 19.05 9.35501 18.54 9.86501C17.49 10.915 17.49 12.625 18.54 13.685C19.05 14.195 19.73 14.475 20.45 14.475C21.17 14.475 21.85 14.195 22.36 13.685C23.41 12.635 23.41 10.925 22.36 9.86501C21.85 9.35501 21.17 9.07501 20.45 9.07501Z" fill="#F8312F"/>
        <path d="M21.13 10.876C21.4111 10.876 21.6389 11.1039 21.6389 11.385C21.6389 12.3365 21.9998 13.2851 22.7199 14.0051C23.0027 14.2879 23.3184 14.5152 23.6476 14.6798L23.6499 14.6809C24.3452 15.033 25.1302 15.1569 25.8896 15.0509C26.168 15.0121 26.4252 15.2063 26.464 15.4847C26.5029 15.763 26.3087 16.0202 26.0303 16.0591C25.0702 16.193 24.0756 16.0371 23.1912 15.5896C22.7609 15.3743 22.357 15.0818 22.0001 14.7249C21.0801 13.8049 20.621 12.5934 20.621 11.385C20.621 11.1039 20.8489 10.876 21.13 10.876Z" fill="#D3D3D3"/>
      </g>
    </g>
    <text id="ITEM_1_HEAD" x="710.0" y="261.2" text-anchor="end" font-weight="bold" font-size="28" fill="var(--accent-1)" data-bg-id="ITEM_1_BG" fill-opacity="1.0" style="font-size: 31px; font-family: 'Segoe UI Variable Display', 'Aptos Display', 'Inter', 'Segoe UI', Helvetica, Arial, sans-serif; font-weight: 700; font-kerning: normal; font-feature-settings: &quot;kern&quot; 1, &quot;liga&quot; 1; letter-spacing:-0.4px;" data-final-font-size="31">
      <tspan x="710.0" dy="28.52px">Programme Names</tspan>
    </text>
    <rect id="ITEM_1_HEAD_FRAME" x="260.0" y="261.2" width="450.0" height="40" fill="none"/>
    <text id="ITEM_1_BODY" x="710.0" y="305.2" text-anchor="end" font-size="20" fill="var(--primary-text)" data-bg-id="ITEM_1_BG" style="font-size: 23px; font-family: 'Segoe UI Variable Text', 'Aptos', 'Inter', 'Segoe UI', Helvetica, Arial, sans-serif; font-weight: 400; font-kerning: normal; font-feature-settings: &quot;kern&quot; 1, &quot;liga&quot; 1;" data-final-font-size="23">
      <tspan x="710.0" dy="19.82px">Often disclosed to support deterrence</tspan>
      <tspan x="710.0" dy="26.45px">and public oversight</tspan>
    </text>
    <rect id="ITEM_1_BODY_FRAME" x="260.0" y="305.2" width="450.0" height="60" fill="none"/>
    <line x1="960" y1="494.4" x2="1006" y2="494.4" stroke="var(--accent-2)" stroke-width="4" stroke-linecap="round" opacity="0.55"/>
    <circle cx="960" cy="494.4" r="9" fill="var(--accent-2)" opacity="0.95" filter="url(#svg8914dc47-soft-glow)"/>
    <rect id="ITEM_2_BG" x="1006.0" y="412.8" width="690.0" height="163.2" rx="81.6" fill="var(--panel)" stroke="var(--accent-2)" stroke-width="3" filter="url(#svg8914dc47-shadow)"/>
    <rect x="1018.0" y="424.8" width="666.0" height="139.2" rx="69.6" fill="var(--accent-2)" fill-opacity="0.055"/>
    <rect x="1006.0" y="412.8" width="20" height="163.2" rx="10" fill="var(--accent-2)" fill-opacity="0.24"/>
    <circle id="ITEM_2_PAD" cx="1092.0" cy="494.4" r="42" fill="var(--icon-pad-bg)" stroke="var(--accent-2)" opacity="1" fill-opacity="0.9" stroke-width="2" stroke-opacity="0.72" data-badge-layer="pad"/>
    <circle id="ITEM_2_PAD_INNER" cx="1092.0" cy="494.4" r="32.76" fill="var(--accent-2)" fill-opacity="0.12" stroke="none" data-badge-layer="tint"/>
    <circle cx="1092.0" cy="494.4" r="33.6" fill="none" stroke="var(--accent-2)" stroke-width="3" stroke-dasharray="6 4" display="none" data-suppressed-decoration="redundant-badge-ring"/>
    <g id="ITEM_2_ICON" transform="translate(1066.0, 468.4)" data-icon-size="52" stroke-linecap="round" stroke-linejoin="round" data-badge-treatment="clean">
      <g transform="translate(-6.759999999999999,-6.759999999999998) scale(2.73)" vector-effect="non-scaling-stroke" stroke-width="2.34" stroke-linecap="round" stroke-linejoin="round" stroke-opacity="1.0">
        <path fill="none" fill-rule="evenodd" d="M15.5624 2.04571c0.0798 0.40919 0.0599 0.77837 0.4491 0.78837 0.3892 0.01 0.3493 -0.28939 0.5588 -0.77837 0.7185 -0.12969 0.9979 -0.06989 0.9979 -0.41908 0 -0.34918 -0.2994 -0.43908 -0.8681 -0.638671C16.5304 0.139694 16.4506 0 16.221 0c-0.2296 0 -0.2794 0.149694 -0.6187 0.828265 -1.0577 0.169694 -1.1476 0.279385 -1.1775 0.488975 -0.0299 0.2096 -0.0499 0.42909 1.1376 0.72847Z" clip-rule="evenodd" vector-effect="non-scaling-stroke" stroke="#f1f5f9"/>
        <path fill="none" fill-rule="evenodd" d="M21.4801 13.921c-0.1996 -0.509 -0.2096 -0.8881 -0.5688 -0.8482 -0.3591 0.0399 -0.2595 0.2793 -0.4191 0.9081h-0.0898c-1.4471 0.3991 -1.3772 0.5788 -1.3672 0.7285 0.01 0.1497 0.1796 0.3792 1.4271 0.469 0.3292 1.417 0.6186 1.3072 0.7483 1.2973 0.1297 -0.0099 0.3893 -0.1597 0.4691 -1.4071v-0.0499c0.9979 -0.2894 1.2375 -0.2794 1.2275 -0.6486 -0.01 -0.3692 -0.1298 -0.3493 -1.4271 -0.4491Z" clip-rule="evenodd" vector-effect="non-scaling-stroke" stroke="#f1f5f9"/>
        <path fill="none" fill-rule="evenodd" d="M5.17403 8.03327c-0.30317 0.01642 -0.60245 0.07693 -0.88817 0.17959 -0.26581 0.11959 -0.45602 0.36204 -0.50898 0.64867 -0.08336 0.47776 -0.12346 0.96204 -0.11969 1.44707 0 1.0577 -0.0699 2.1155 -0.0599 3.1833 0 0.7185 0 1.437 0.0898 2.1455 0.0699 0.9979 0 3.3929 0.0599 4.4308 -0.01194 0.1761 -0.01194 0.3528 0 0.5288 0.01775 0.228 0.15979 0.4275 0.36928 0.519 0.53745 0.1159 1.08694 0.1661 1.63653 0.1497 1.70643 0 4.4807 -0.0599 5.5784 -0.0898l2.9438 -0.1398s0.5788 0 0.7884 -0.0499c0.2369 -0.0211 0.4274 -0.2034 0.4591 -0.4391 0.0176 -0.3323 0.0176 -0.6655 0 -0.9978 -0.0599 -0.7784 -0.1896 -1.6565 -0.2695 -2.2354 -0.0209 -0.21 -0.2093 -0.3626 -0.4191 -0.3393 -0.2115 0.026 -0.3627 0.2173 -0.3393 0.4292 0 0.489 0.1297 1.2074 0.1696 1.896v0.7485l-0.4091 0.0898h-2.9239c-0.8383 0 -2.61452 0 -4.16136 -0.0599 -0.90806 0 -1.72642 0 -2.1754 -0.0599 0 -1.0678 0 -3.5027 -0.0599 -4.4906 -0.0599 -0.6886 -0.0799 -1.3772 -0.0998 -2.0658v-3.1633c-0.02 -1.45707 -0.84826 -1.04789 2.24531 -1.32727l6.10725 -0.39919c0.2612 -0.01918 0.4037 -0.31398 0.2564 -0.53051 -0.0683 -0.10051 -0.1851 -0.15694 -0.3063 -0.14806l-6.15715 0.1397H5.17403Z" clip-rule="evenodd" vector-effect="non-scaling-stroke" stroke="#f1f5f9"/>
        <path fill="none" fill-rule="evenodd" d="M2.37988 10.8174c0 -1.42699 0.11979 -2.84403 0.26938 -4.26107h0.1198c0.52378 -0.09276 1.0548 -0.13949 1.58673 -0.1397 0.34929 0 0.70847 0 1.06776 -0.0599 2.66439 -0.31928 1.55673 0.0499 2.4549 -1.18755 0.12643 -0.19204 0.2851 -0.36081 0.46898 -0.49887 0.20081 -0.1697 0.43071 -0.30153 0.67857 -0.38919 0.29224 -0.1303 0.62592 -0.1303 0.91806 0 0.63764 0.38123 1.11074 0.98582 1.32724 1.69643 0.0536 0.2051 0.2649 0.32653 0.4691 0.26939 0.1856 -0.07419 0.2848 -0.27694 0.2295 -0.46898 -0.1441 -1.19663 -0.9 -2.23235 -1.99584 -2.73429 -0.55082 -0.16173 -1.14429 -0.08581 -1.63663 0.2096 -0.28715 0.16826 -0.54368 0.38428 -0.75837 0.63867 -0.21939 0.26459 -0.39153 0.565 -0.50898 0.88806 -0.07031 0.19296 -0.13031 0.38949 -0.17959 0.58878 -0.40602 -0.10551 -0.8198 -0.17898 -1.23745 -0.21949 -0.24235 -0.02 -0.48602 -0.02 -0.72847 0 -0.24827 0.02051 -0.4949 0.05714 -0.73847 0.10979 -2.24531 0.51888 -2.51469 0 -2.99377 6.33672 -0.0698 0.8084 -0.0998 1.6166 -0.0998 2.425v2.415c0.1098 1.876 0.30939 3.7422 0.53888 5.6083 0.01571 0.2141 0.20581 0.3724 0.41918 0.3493 0.20459 -0.0257 0.35602 -0.2031 0.34929 -0.4092 -0.0998 -2.2253 -0.0998 -4.4507 -0.0699 -6.686v-2.6545c0.0399 -0.6187 0.0399 -1.2375 0.0499 -1.8263Z" clip-rule="evenodd" vector-effect="non-scaling-stroke" stroke="#f1f5f9"/>
        <path fill="none" fill-rule="evenodd" d="M17.4984 14.1705c-0.0352 -0.1851 -0.2144 -0.306 -0.3992 -0.2695 -0.1819 0.04 -0.3003 0.2156 -0.2694 0.3992 0.0867 1.0855 0.1035 2.1755 0.0499 3.2632 0 0.7185 0 1.437 -0.0499 2.1456 -0.0294 0.772 -0.1262 1.54 -0.2894 2.2952 -0.0599 0.2034 0.0496 0.418 0.2495 0.489 0.2007 0.0591 0.4123 -0.0511 0.479 -0.2495 0.3738 -0.8965 0.6385 -1.8346 0.7883 -2.7942 0.0671 -0.4092 0.1038 -0.8229 0.1098 -1.2375 0.0247 -0.412 0.0247 -0.8253 0 -1.2374 -0.1429 -0.9519 -0.3666 -1.89 -0.6686 -2.8041Z" clip-rule="evenodd" vector-effect="non-scaling-stroke" stroke="#f1f5f9"/>
        <path fill="none" fill-rule="evenodd" d="M16.1213 22.4732c-0.7813 0.1635 -1.5767 0.2504 -2.375 0.2595 -1.2275 0 -2.4848 0 -3.6624 -0.0499 -0.60873 0 -1.20751 0 -1.80618 0.0698 -0.89816 0.0498 -1.79633 0.1397 -2.69439 0.1696H3.66731c-0.18775 -0.0233 -0.35847 0.1114 -0.37928 0.2994 -0.01225 0.1825 0.11836 0.3435 0.29938 0.3692 1.08327 0.1805 2.17623 0.2972 3.27327 0.3493 0.43908 0 0.86816 0 1.30724 0.0599h1.93588c1.2076 -0.0599 2.4749 -0.0798 3.7323 -0.2295 0.8428 -0.0993 1.6747 -0.2763 2.4848 -0.5289 0.2065 -0.0581 0.327 -0.2724 0.2695 -0.479 -0.0494 -0.2096 -0.2597 -0.3393 -0.4691 -0.2894Z" clip-rule="evenodd" vector-effect="non-scaling-stroke" stroke="#f1f5f9"/>
        <path fill="none" fill-rule="evenodd" d="M19.3944 10.6978c0.0598 0 0.0998 0.1396 0.1696 0.2094 0.0791 0.0828 0.1699 0.1533 0.2695 0.2096 0.1354 0.0488 0.2837 0.0488 0.4191 0 0.1772 -0.046 0.3263 -0.1659 0.4092 -0.3292 0.1161 -0.2158 0.1842 -0.4541 0.1995 -0.6986 0.0256 -0.3988 0.0256 -0.7988 0 -1.19757 0 -0.46898 0 -0.93796 -0.1097 -1.39704 -0.1397 -1.07776 -0.3793 -2.12561 -0.5789 -3.19337 -0.0577 -0.18663 -0.2477 -0.29898 -0.4391 -0.25949 -0.166 0.02653 -0.2933 0.16194 -0.3093 0.32939 -0.928 0.21949 -1.8761 0.28939 -2.8242 0.43908 -0.439 0.0798 -0.8781 0.17959 -1.2972 0.28939 -0.4215 0.11143 -0.8272 0.27571 -1.2075 0.48898 -0.1872 0.1002 -0.3375 0.25755 -0.4291 0.44908 -0.0595 0.1898 -0.0096 0.39694 0.1298 0.53888l0.2993 0.22949 0.9979 0.75836s-0.0798 0 -0.0998 0.0799c-0.4989 0.77837 -0.9979 1.56674 -1.4968 2.3351 -0.3393 0.49902 -0.6886 0.99792 -1.0578 1.46692 0 0 -0.2296 0.469 -0.4391 0.7585 -0.3693 -0.2495 -0.7285 -0.519 -1.1077 -0.7685 -0.221 -0.1502 -0.4509 -0.2868 -0.6886 -0.4091 -0.24448 -0.1424 -0.49775 -0.269 -0.75836 -0.3792 -0.1849 -0.0787 -0.39388 -0.0787 -0.57877 0 -0.22062 0.1315 -0.41378 0.3042 -0.56888 0.5089 -0.26939 0.3393 -0.49898 0.7984 -0.69857 1.0678l-2.30511 3.4627c-0.10581 0.152 -0.0703 0.3608 0.0798 0.4691 0.1551 0.1069 0.36694 0.0716 0.47898 -0.0799 0.31932 -0.4258 0.65197 -0.8449 0.99796 -1.2573 0.54888 -0.6187 1.12765 -1.2175 1.65653 -1.7962 0.18959 -0.2096 0.41908 -0.5489 0.65867 -0.8483l0.16959 -0.1796c0.1297 0.0898 0.26949 0.2195 0.29939 0.2395l2.04567 1.3172c0.3146 0.1501 0.6912 0.0633 0.9082 -0.2096 0.2979 -0.3663 0.5744 -0.7494 0.8283 -1.1475 0.3393 -0.5289 0.6685 -1.0678 0.9978 -1.6266 0.4591 -0.81831 0.8683 -1.64657 1.3074 -2.46494 0.0444 -0.10173 0.0444 -0.21745 0 -0.31928h0.0798c0.1319 -0.13245 0.1319 -0.34664 0 -0.47898l-0.7285 -0.81837c0.2295 -0.0599 0.4591 -0.0998 0.5688 -0.11969 0.6786 -0.1996 1.3771 -0.34929 2.0757 -0.53888 0.5873 -0.16357 1.1639 -0.36357 1.7264 -0.59878l0.1297 3.79204v0.66868c-0.1276 -0.075 -0.2479 -0.16194 -0.3593 -0.25949 -0.2319 -0.18184 -0.4458 -0.38572 -0.6386 -0.60878 -0.1013 -0.15418 -0.3117 -0.19071 -0.459 -0.0798 -0.1298 0.08847 -0.1727 0.26011 -0.0998 0.39919 -0.8882 1.13768 -1.7863 2.28518 -2.7244 3.39298 -0.6187 0.7284 -1.2474 1.4369 -1.9259 2.1155 -1.8262 1.7763 -0.7884 1.2674 -2.7244 0.2795 -0.2341 -0.1171 -0.4779 -0.2139 -0.72848 -0.2894 -0.18694 -0.0481 -0.38561 -0.0077 -0.53888 0.1097 -0.60326 0.4977 -1.17643 1.0309 -1.71643 1.5967 -0.78836 0.8383 -1.53673 1.7264 -2.3052 2.5547 -0.13194 0.1324 -0.13194 0.3465 0 0.479 0.13786 0.1281 0.35112 0.1281 0.48898 0 0.81837 -0.7585 1.63663 -1.5667 2.5048 -2.3252 0.44877 -0.4005 0.91836 -0.777 1.40714 -1.1277 0.10969 0.0499 0.27937 0.0799 0.29927 0.0998 0.3893 0.2196 0.7984 0.5689 1.2076 0.8383 0.2227 0.1481 0.4645 0.2655 0.7184 0.3493 0.1615 0.057 0.3376 0.057 0.499 0 0.1965 -0.1181 0.3834 -0.2515 0.5588 -0.3992l1.2574 -1.2673c0.6586 -0.7385 1.2674 -1.5169 1.8562 -2.3053 0.8082 -1.1076 1.5667 -2.2553 2.3351 -3.39281 0.0599 0.0698 0.0998 0.14959 0.1597 0.21951 0.2327 0.2287 0.4829 0.439 0.7484 0.6288Z" clip-rule="evenodd" vector-effect="non-scaling-stroke" stroke="#f1f5f9"/>
      </g>
    </g>
    <text id="ITEM_2_HEAD" x="1162.0" y="452.4" text-anchor="start" font-weight="bold" font-size="28" fill="var(--accent-2)" data-bg-id="ITEM_2_BG" fill-opacity="1.0" style="font-size: 31px; font-family: 'Segoe UI Variable Display', 'Aptos Display', 'Inter', 'Segoe UI', Helvetica, Arial, sans-serif; font-weight: 700; font-kerning: normal; font-feature-settings: &quot;kern&quot; 1, &quot;liga&quot; 1; letter-spacing:-0.4px;" data-final-font-size="31">
      <tspan x="1162.0" dy="28.52px">Performance Data</tspan>
    </text>
    <rect id="ITEM_2_HEAD_FRAME" x="1162.0" y="452.4" width="450.0" height="40" fill="none"/>
    <text id="ITEM_2_BODY" x="1162.0" y="496.4" text-anchor="start" font-size="20" fill="var(--primary-text)" data-bg-id="ITEM_2_BG" style="font-size: 23px; font-family: 'Segoe UI Variable Text', 'Aptos', 'Inter', 'Segoe UI', Helvetica, Arial, sans-serif; font-weight: 400; font-kerning: normal; font-feature-settings: &quot;kern&quot; 1, &quot;liga&quot; 1;" data-final-font-size="23">
      <tspan x="1162.0" dy="19.82px">Guarded closely to prevent systematic</tspan>
      <tspan x="1162.0" dy="26.45px">countermeasure engineering</tspan>
    </text>
    <rect id="ITEM_2_BODY_FRAME" x="1162.0" y="496.4" width="450.0" height="60" fill="none"/>
    <line x1="960" y1="685.6" x2="914" y2="685.6" stroke="var(--accent-3)" stroke-width="4" stroke-linecap="round" opacity="0.55"/>
    <circle cx="960" cy="685.6" r="9" fill="var(--accent-3)" opacity="0.95" filter="url(#svg8914dc47-soft-glow)"/>
    <rect id="ITEM_3_BG" x="224.0" y="604.0" width="690.0" height="163.2" rx="81.6" fill="var(--panel)" stroke="var(--accent-3)" stroke-width="3" filter="url(#svg8914dc47-shadow)"/>
    <rect x="236.0" y="616.0" width="666.0" height="139.2" rx="69.6" fill="var(--accent-3)" fill-opacity="0.055"/>
    <rect x="894.0" y="604.0" width="20" height="163.2" rx="10" fill="var(--accent-3)" fill-opacity="0.24"/>
    <circle id="ITEM_3_PAD" cx="828.0" cy="685.6" r="42" fill="var(--icon-pad-bg)" stroke="var(--accent-3)" opacity="1" fill-opacity="0.9" stroke-width="2" stroke-opacity="0.72" data-badge-layer="pad"/>
    <circle id="ITEM_3_PAD_INNER" cx="828.0" cy="685.6" r="32.76" fill="var(--accent-3)" fill-opacity="0.12" stroke="none" data-badge-layer="tint"/>
    <circle cx="828.0" cy="685.6" r="33.6" fill="none" stroke="var(--accent-3)" stroke-width="3" stroke-dasharray="6 4" display="none" data-suppressed-decoration="redundant-badge-ring"/>
    <g id="ITEM_3_ICON" transform="translate(802.0, 659.6)" data-icon-size="52" stroke-linecap="round" stroke-linejoin="round" data-badge-treatment="clean">
      <g transform="translate(-9.536271186440676,-9.536271186440676) scale(2.9613559322033898)" vector-effect="non-scaling-stroke" stroke-width="2.34" stroke-linecap="round" stroke-linejoin="round" stroke-opacity="1.0">
        <path d="M4 3 2 5v15c0 .6.4 1 1 1h2c.6 0 1-.4 1-1V5Z" vector-effect="non-scaling-stroke" fill="none" stroke="#f1f5f9"/>
        <path d="M6 8h4" vector-effect="non-scaling-stroke" fill="none" stroke="#f1f5f9"/>
        <path d="M6 18h4" vector-effect="non-scaling-stroke" fill="none" stroke="#f1f5f9"/>
        <path d="m12 3-2 2v15c0 .6.4 1 1 1h2c.6 0 1-.4 1-1V5Z" vector-effect="non-scaling-stroke" fill="none" stroke="#f1f5f9"/>
        <path d="M14 8h4" vector-effect="non-scaling-stroke" fill="none" stroke="#f1f5f9"/>
        <path d="M14 18h4" vector-effect="non-scaling-stroke" fill="none" stroke="#f1f5f9"/>
        <path d="m20 3-2 2v15c0 .6.4 1 1 1h2c.6 0 1-.4 1-1V5Z" vector-effect="non-scaling-stroke" fill="none" stroke="#f1f5f9"/>
      </g>
    </g>
    <text id="ITEM_3_HEAD" x="710.0" y="643.6" text-anchor="end" font-weight="bold" font-size="28" fill="var(--accent-3)" data-bg-id="ITEM_3_BG" fill-opacity="1.0" style="font-size: 31px; font-family: 'Segoe UI Variable Display', 'Aptos Display', 'Inter', 'Segoe UI', Helvetica, Arial, sans-serif; font-weight: 700; font-kerning: normal; font-feature-settings: &quot;kern&quot; 1, &quot;liga&quot; 1; letter-spacing:-0.4px;" data-final-font-size="31">
      <tspan x="710.0" dy="28.52px">Operational Limits</tspan>
    </text>
    <rect id="ITEM_3_HEAD_FRAME" x="260.0" y="643.6" width="450.0" height="40" fill="none"/>
    <text id="ITEM_3_BODY" x="710.0" y="687.6" text-anchor="end" font-size="20" fill="var(--primary-text)" data-bg-id="ITEM_3_BG" style="font-size: 23px; font-family: 'Segoe UI Variable Text', 'Aptos', 'Inter', 'Segoe UI', Helvetica, Arial, sans-serif; font-weight: 400; font-kerning: normal; font-feature-settings: &quot;kern&quot; 1, &quot;liga&quot; 1;" data-final-font-size="23">
      <tspan x="710.0" dy="19.82px">Kept secret to maintain uncertainty</tspan>
      <tspan x="710.0" dy="26.45px">for potential targets</tspan>
    </text>
    <rect id="ITEM_3_BODY_FRAME" x="260.0" y="687.6" width="450.0" height="60" fill="none"/>
    <line x1="960" y1="876.8" x2="1006" y2="876.8" stroke="var(--accent-4)" stroke-width="4" stroke-linecap="round" opacity="0.55"/>
    <circle cx="960" cy="876.8" r="9" fill="var(--accent-4)" opacity="0.95" filter="url(#svg8914dc47-soft-glow)"/>
    <rect id="ITEM_4_BG" x="1006.0" y="795.2" width="690.0" height="163.2" rx="81.6" fill="var(--panel)" stroke="var(--accent-4)" stroke-width="3" filter="url(#svg8914dc47-shadow)"/>
    <rect x="1018.0" y="807.2" width="666.0" height="139.2" rx="69.6" fill="var(--accent-4)" fill-opacity="0.055"/>
    <rect x="1006.0" y="795.2" width="20" height="163.2" rx="10" fill="var(--accent-4)" fill-opacity="0.24"/>
    <circle id="ITEM_4_PAD" cx="1092.0" cy="876.8" r="42" fill="var(--icon-pad-bg)" stroke="var(--accent-1)" opacity="1" fill-opacity="0.9" stroke-width="2" stroke-opacity="0.72" data-badge-layer="pad"/>
    <circle id="ITEM_4_PAD_INNER" cx="1092.0" cy="876.8" r="32.76" fill="var(--accent-1)" fill-opacity="0.12" stroke="none" data-badge-layer="tint"/>
    <circle cx="1092.0" cy="876.8" r="33.6" fill="none" stroke="var(--accent-4)" stroke-width="3" stroke-dasharray="6 4" display="none" data-suppressed-decoration="redundant-badge-ring"/>
    <g id="ITEM_4_ICON" transform="translate(1066.0, 850.8)" data-icon-size="52" stroke-linecap="round" stroke-linejoin="round" data-badge-treatment="clean">
      <g transform="translate(-11.439999999999998,-9.099999999999998) scale(0.2925)" vector-effect="non-scaling-stroke" stroke-width="2.34" stroke-linecap="round" stroke-linejoin="round" stroke-opacity="1.0">
        <path d="M24,176V64A24,24,0,0,1,48,40H64V152H48a24,24,0,0,0,0,48H232V64H64" fill="none" stroke="#f1f5f9" vector-effect="non-scaling-stroke"/>
        <line x1="128" y1="96" x2="128" y2="160" fill="none" stroke="#f1f5f9" vector-effect="non-scaling-stroke"/>
        <line x1="168" y1="96" x2="168" y2="160" fill="none" stroke="#f1f5f9" vector-effect="non-scaling-stroke"/>
        <line x1="104" y1="112" x2="192" y2="112" fill="none" stroke="#f1f5f9" vector-effect="non-scaling-stroke"/>
        <line x1="104" y1="144" x2="192" y2="144" fill="none" stroke="#f1f5f9" vector-effect="non-scaling-stroke"/>
      </g>
    </g>
    <text id="ITEM_4_HEAD" x="1162.0" y="834.8" text-anchor="start" font-weight="bold" font-size="28" fill="var(--accent-1)" data-bg-id="ITEM_4_BG" fill-opacity="1.0" style="font-size: 31px; font-family: 'Segoe UI Variable Display', 'Aptos Display', 'Inter', 'Segoe UI', Helvetica, Arial, sans-serif; font-weight: 700; font-kerning: normal; font-feature-settings: &quot;kern&quot; 1, &quot;liga&quot; 1; letter-spacing:-0.4px;" data-final-font-size="31">
      <tspan x="1162.0" dy="28.52px">Technical Specs</tspan>
    </text>
    <rect id="ITEM_4_HEAD_FRAME" x="1162.0" y="834.8" width="450.0" height="40" fill="none"/>
    <text id="ITEM_4_BODY" x="1162.0" y="878.8" text-anchor="start" font-size="20" fill="var(--primary-text)" data-bg-id="ITEM_4_BG" style="font-size: 23px; font-family: 'Segoe UI Variable Text', 'Aptos', 'Inter', 'Segoe UI', Helvetica, Arial, sans-serif; font-weight: 400; font-kerning: normal; font-feature-settings: &quot;kern&quot; 1, &quot;liga&quot; 1;" data-final-font-size="23">
      <tspan x="1162.0" dy="19.82px">Classified long-term to protect specific</tspan>
      <tspan x="1162.0" dy="26.45px">engineering trade-offs</tspan>
    </text>
    <rect id="ITEM_4_BODY_FRAME" x="1162.0" y="878.8" width="450.0" height="60" fill="none"/>
  </g>
  <text id="SOURCE_NOTE" x="134.0" y="1058.0" fill="var(--muted-text)" opacity="0.88" style="font-family: var(--font-family); font-size: 20px;">Source: Introduction</text>
</svg>
