<?xml version='1.0' encoding='utf-8'?>
<svg xmlns="http://www.w3.org/2000/svg" width="1920" height="1080" viewBox="0 0 1920 1080" data-theme="light" data-semantic-intent="compare" data-relation-type="comparison" data-site-visual-identity="signal-cobalt">
  <style>
        @font-face {
            font-family: 'Inter';
            src: url('assets/fonts/Inter-Regular.ttf') format('truetype');
            font-weight: 400;
            font-style: normal;
            font-display: swap;
        }
        @font-face {
            font-family: 'Inter';
            src: url('assets/fonts/Inter-Bold.ttf') format('truetype');
            font-weight: 600;
            font-style: normal;
            font-display: swap;
        }
        @font-face {
            font-family: 'Inter';
            src: url('assets/fonts/Inter-Bold.ttf') format('truetype');
            font-weight: 800;
            font-style: normal;
            font-display: swap;
        }
        
:root {
    --background: #f8fafc;
    --panel: #ffffff;
    --primary-text: #0f172a;
    --muted-text: #64748b;
    --inverse-text: #ffffff;
    --border: #e2e8f0;
    --shadow-color: #000000;
    --icon-pad-bg: #1e293b;
    --art-glow: #0891b2;
    --art-glow-opacity: 0.10;
    --art-sheen: #ffffff;
    --art-sheen-opacity: 0.34;
    --art-shadow: #0f172a;
    --art-shadow-opacity: 0.14;
    --art-muted-line: #94a3b8;
    --art-panel-tint: #f1f5f9;
    --semantic-risk: #b91c1c;
    --semantic-warning: #c2410c;
    --semantic-uncertain: #a16207;
    --semantic-evidence: #1d4ed8;
    --semantic-claim: #6d28d9;
    --semantic-positive: #15803d;
    --semantic-outcome: #0e7490;
    --font-family: 'Inter', 'Segoe UI', 'Kalam', Roboto, Helvetica, Arial, sans-serif;
    --radius-xl: 16px;
    --font-family-headline: 'Segoe UI Variable Display', 'Aptos Display', 'Inter', 'Segoe UI', Helvetica, Arial, sans-serif;
    --font-family-body: 'Segoe UI Variable Text', 'Aptos', 'Inter', 'Segoe UI', Helvetica, Arial, sans-serif;
    --font-heading: var(--font-family-headline);
    --font-body: var(--font-family-body);
    --font-size-h1: 64px;
    --font-size-h2: 42px;
    --font-size-h3: 29px;
    --font-size-body: 21px;
    --font-size-caption: 17px;
    --secondary-text: var(--muted-text);
    --panel-border: var(--border);
    --font-weight-normal: 400;
    --font-weight-medium: 500;
    --font-weight-semibold: 600;
    --font-weight-bold: 700;
    --spacing-gutter-pct: 0.07;
    --spacing-top-pct: 0.15;
    --spacing-bottom-pct: 0.07;
    --spacing-title-y-pct: 0.055;
    --accent-1: #1d4ed8;
    --accent-2: #2563eb;
    --accent-3: #4f46e5;
    --accent-4: #6d28d9;
    --accent-5: #0369a1;
    --accent-6: #c2410c;
}
:root[data-theme="dark"] {
    --background: #0f172a;
    --panel: #1e293b;
    --primary-text: #f1f5f9;
    --muted-text: #94a3b8;
    --inverse-text: #0f172a;
    --border: #334155;
    --shadow-color: #000000;
    --icon-pad-bg: #1e293b;
    --art-glow: #7dd3fc;
    --art-glow-opacity: 0.18;
    --art-sheen: #ffffff;
    --art-sheen-opacity: 0.18;
    --art-shadow: #000000;
    --art-shadow-opacity: 0.28;
    --art-muted-line: #64748b;
    --art-panel-tint: #1e293b;
    --semantic-risk: #f87171;
    --semantic-warning: #fb923c;
    --semantic-uncertain: #fbbf24;
    --semantic-evidence: #60a5fa;
    --semantic-claim: #c084fc;
    --semantic-positive: #4ade80;
    --semantic-outcome: #22d3ee;
    --accent-1: #93c5fd;
    --accent-2: #60a5fa;
    --accent-3: #818cf8;
    --accent-4: #a78bfa;
    --accent-5: #38bdf8;
    --accent-6: #fb923c;
}
:root[data-theme="light"] {
    --background: #f8fafc;
    --panel: #ffffff;
    --primary-text: #0f172a;
    --muted-text: #64748b;
    --inverse-text: #ffffff;
    --border: #e2e8f0;
    --shadow-color: #000000;
    --icon-pad-bg: #1e293b;
    --art-glow: #0891b2;
    --art-glow-opacity: 0.10;
    --art-sheen: #ffffff;
    --art-sheen-opacity: 0.34;
    --art-shadow: #0f172a;
    --art-shadow-opacity: 0.14;
    --art-muted-line: #94a3b8;
    --art-panel-tint: #f1f5f9;
    --semantic-risk: #b91c1c;
    --semantic-warning: #c2410c;
    --semantic-uncertain: #a16207;
    --semantic-evidence: #1d4ed8;
    --semantic-claim: #6d28d9;
    --semantic-positive: #15803d;
    --semantic-outcome: #0e7490;
    --accent-1: #1d4ed8;
    --accent-2: #2563eb;
    --accent-3: #4f46e5;
    --accent-4: #6d28d9;
    --accent-5: #0369a1;
    --accent-6: #c2410c;
}</style>
  <rect x="0" y="0" width="1.92E+3" height="1.08E+3" fill="#252a34" stroke="none" id="programmatic_background"/>
  <line id="HEADER_DECOR" x1="960.0" x2="1080.0" y1="135.0" y2="135.0" stroke="var(--accent-1)" stroke-width="6" stroke-linecap="round"/>
  <defs>
    <pattern id="svgd7bb24a5-napkin-hatch" patternUnits="userSpaceOnUse" width="12" height="12">
      <path d="M -3 12 L 12 -3 M 0 15 L 15 0" fill="none" stroke="var(--primary-text)" stroke-width="1" stroke-opacity="0.05"/>
    </pattern>
    <filter id="svgd7bb24a5-shadow" x="-30%" y="-30%" width="160%" height="160%">
      <feDropShadow dx="0" dy="3" stdDeviation="4" flood-color="#000000" flood-opacity="0.10"/>
      <feDropShadow dx="0" dy="10" stdDeviation="16" flood-color="#000000" flood-opacity="0.12"/>
    </filter>
    <radialGradient id="svgd7bb24a5-universal-edge-vignette" cx="50%" cy="50%" r="72%">
      <stop offset="0%" stop-color="var(--background)" stop-opacity="0"/>
      <stop offset="72%" stop-color="var(--background)" stop-opacity="0.12"/>
      <stop offset="100%" stop-color="var(--primary-text)" stop-opacity="0.08"/>
    </radialGradient>
    <linearGradient id="svgd7bb24a5-universal-surface-sheen" x1="0%" y1="0%" x2="100%" y2="100%">
      <stop offset="0%" stop-color="var(--art-sheen)" stop-opacity="var(--art-sheen-opacity)"/>
      <stop offset="46%" stop-color="var(--art-sheen)" stop-opacity="0.035"/>
      <stop offset="100%" stop-color="var(--art-panel-tint)" stop-opacity="0.14"/>
    </linearGradient>
    <radialGradient id="svgd7bb24a5-universal-icon-aura" cx="50%" cy="42%" r="64%">
      <stop offset="0%" stop-color="var(--art-glow)" stop-opacity="var(--art-glow-opacity)"/>
      <stop offset="100%" stop-color="var(--background)" stop-opacity="0"/>
    </radialGradient>
    <filter id="svgd7bb24a5-text-glow" x="-20%" y="-20%" width="140%" height="140%">
      <feDropShadow dx="0" dy="0" stdDeviation="2" flood-color="#000000" flood-opacity="0.4"/>
    </filter>
    <marker id="svgd7bb24a5-arrowhead" markerWidth="10" markerHeight="7" refX="9" refY="3.5" orient="auto" markerUnits="strokeWidth">
      <polygon points="0 0, 10 3.5, 0 7" fill="var(--muted-text)" opacity="0.6"/>
    </marker>
  </defs>
  <rect id="CANVAS_BG" width="100%" height="100%" fill="var(--background)"/>
  <rect width="100%" height="100%" fill="url(#svgd7bb24a5-napkin-hatch)"/>
  <rect id="UNIVERSAL_EDGE_VIGNETTE" width="100%" height="100%" fill="url(#svgd7bb24a5-universal-edge-vignette)" opacity="0.62"/>
  <text id="TITLE" x="960.0" y="59" text-anchor="middle" font-weight="800" font-size="56" fill="#0f172a" style="font-size: 69px; font-family: 'Segoe UI Variable Display', 'Aptos Display', 'Inter', 'Segoe UI', Helvetica, Arial, sans-serif; font-weight: 800; font-kerning: normal; font-feature-settings: &quot;kern&quot; 1, &quot;liga&quot; 1; letter-spacing:-1.2px;" data-final-font-size="69">
    <tspan x="960.0" dy="70.47px">Passive vs Active Detection Trade-offs</tspan>
  </text>
  <rect id="TITLE_FRAME" x="134" y="59" width="1652" height="103" fill="none"/>
  <g id="FIELD">
    <rect x="190" y="248" width="660" height="300" rx="34" fill="var(--accent-1)" fill-opacity="0.08" stroke="var(--accent-1)" stroke-width="2" stroke-opacity="0.22"/>
    <rect x="1070" y="248" width="660" height="300" rx="34" fill="var(--accent-2)" fill-opacity="0.08" stroke="var(--accent-2)" stroke-width="2" stroke-opacity="0.22"/>
    <rect x="190" y="648" width="660" height="300" rx="34" fill="var(--accent-3)" fill-opacity="0.08" stroke="var(--accent-3)" stroke-width="2" stroke-opacity="0.18"/>
    <rect x="1070" y="648" width="660" height="300" rx="34" fill="var(--accent-4)" fill-opacity="0.08" stroke="var(--accent-4)" stroke-width="2" stroke-opacity="0.18"/>
    <line x1="960" y1="228" x2="960" y2="972" stroke="var(--primary-text)" stroke-width="11" stroke-opacity="0.20"/>
    <line x1="176" y1="600" x2="1744" y2="600" stroke="var(--primary-text)" stroke-width="11" stroke-opacity="0.20"/>
    <path d="M 960 534 L 1026 600 L 960 666 L 894 600 Z" fill="var(--panel)" fill-opacity="0.94" stroke="var(--primary-text)" stroke-width="4" stroke-opacity="0.28"/>
    <circle cx="960" cy="600" r="44" fill="var(--background)" stroke="var(--primary-text)" stroke-width="4"/>
    <g transform="translate(520, 392)">
      <rect id="ITEM_1_BG" x="-310" y="-126" width="620" height="252" rx="32" fill="var(--panel)" fill-opacity="0.95" stroke="var(--accent-1)" stroke-width="3" filter="url(#svgd7bb24a5-shadow)"/>
      <rect x="-310" y="-126" width="620" height="252" rx="18" fill="url(#svgd7bb24a5-universal-surface-sheen)" opacity="0.84"/>
      <rect x="254" y="-92" width="18" height="184" rx="9" fill="var(--accent-1)" fill-opacity="0.22"/>
      <circle cx="224" cy="-24" r="90" fill="none" stroke="var(--accent-1)" stroke-width="2.5" stroke-opacity="0.14"/>
      <text id="ITEM_1_HEAD" x="-244.0" y="-96.0" text-anchor="start" font-weight="700" font-size="34" fill="var(--semantic-positive)" data-bg-id="ITEM_1_BG" fill-opacity="1.0" style="font-size: 31px; font-family: 'Segoe UI Variable Display', 'Aptos Display', 'Inter', 'Segoe UI', Helvetica, Arial, sans-serif; font-weight: 700; font-kerning: normal; font-feature-settings: &quot;kern&quot; 1, &quot;liga&quot; 1; letter-spacing:-0.4px;" data-final-font-size="31">
        <tspan x="-244.0" dy="28.52px">Emission Profile</tspan>
      </text>
      <rect id="ITEM_1_HEAD_FRAME" x="-244" y="-96" width="400" height="40" fill="none"/>
      <text id="ITEM_1_BODY" x="-244.0" y="-4.0" text-anchor="start" font-size="24" fill="var(--primary-text)" opacity="0.92" data-bg-id="ITEM_1_BG" style="font-size: 23px; font-family: 'Segoe UI Variable Text', 'Aptos', 'Inter', 'Segoe UI', Helvetica, Arial, sans-serif; font-weight: 400; font-kerning: normal; font-feature-settings: &quot;kern&quot; 1, &quot;liga&quot; 1;" data-final-font-size="23">
        <tspan x="-244.0" dy="33.42px">Passive systems remain electronically</tspan>
        <tspan x="-244.0" dy="26.45px">silent and undetectable</tspan>
      </text>
      <rect id="ITEM_1_BODY_FRAME" x="-244" y="-4" width="430" height="128" fill="none"/>
      <circle id="ITEM_1_PAD" cx="224" cy="-24" r="52" fill="var(--icon-pad-bg)" opacity="1" fill-opacity="0.9" stroke-width="2" stroke="var(--semantic-positive)" stroke-opacity="0.72" data-badge-layer="pad"/>
      <circle id="ITEM_1_PAD_INNER" cx="224" cy="-24" r="40.56" fill="var(--semantic-positive)" fill-opacity="0.12" stroke="none" data-badge-layer="tint"/>
      <circle cx="224" cy="-24" r="42" fill="none" stroke="var(--accent-1)" stroke-width="2.5" stroke-dasharray="6 4" display="none" data-suppressed-decoration="redundant-badge-ring"/>
      <g id="ITEM_1_ICON" transform="translate(182, -66)" data-icon-size="84" stroke-linecap="round" stroke-linejoin="round" data-badge-treatment="clean">
        <g transform="translate(-3.58974358974359,-5.0256410256410255) scale(0.717948717948718)">
          <path fill="url(#SVGRdfTscRi)" d="M63.6 118.8c-27.9 0-58-17.5-58-55.9S35.7 7 63.6 7c15.5 0 29.8 5.1 40.4 14.4c11.5 10.2 17.6 24.6 17.6 41.5s-6.1 31.2-17.6 41.4c-10.6 9.3-25 14.5-40.4 14.5"/>
          <path fill="url(#SVGnYa5teKI)" d="M63.6 118.8c-27.9 0-58-17.5-58-55.9S35.7 7 63.6 7c15.5 0 29.8 5.1 40.4 14.4c11.5 10.2 17.6 24.6 17.6 41.5s-6.1 31.2-17.6 41.4c-10.6 9.3-25 14.5-40.4 14.5"/>
          <path fill="#EB8F00" d="M111.49 29.67c5.33 8.6 8.11 18.84 8.11 30.23c0 16.9-6.1 31.2-17.6 41.4c-10.6 9.3-25 14.5-40.4 14.5c-18.06 0-37-7.35-48.18-22.94c10.76 17.66 31 25.94 50.18 25.94c15.4 0 29.8-5.2 40.4-14.5c11.5-10.2 17.6-24.5 17.6-41.4c0-12.74-3.47-24.06-10.11-33.23"/>
          <path fill="#422B0D" d="M79.7 68.3c-9 2.19-11.8 1.97-15.5 1.97h-.4c-3.7 0-6.5.22-15.5-1.97c-1.6-.33-2.9 1.86-.5 3.83c4.8 3.83 10.5 5.04 16.2 5.04s11.4-1.2 16.2-5.04c2.4-1.97 1.1-4.16-.5-3.83m-36-13.2c1.85-.02 3.7.18 5.5.6c.96.25 1.96-.21 2.4-1.1c.75-1.56 1.13-3.27 1.1-5c0-5.9-3.8-9.4-8-9.4s-8 3.5-8 9.4c-.03 1.55.28 3.08.9 4.5c.36.87 1.28 1.37 2.2 1.2c1.2-.1 2.5-.2 3.9-.2m40.6 0c-1.85-.02-3.7.18-5.5.6c-.96.23-1.95-.23-2.4-1.1c-.75-1.56-1.13-3.27-1.1-5c0-5.9 3.8-9.4 8-9.4s8 3.5 8 9.4c.03 1.55-.28 3.08-.9 4.5c-.36.87-1.28 1.37-2.2 1.2c-1.2-.1-2.5-.2-3.9-.2"/>
          <path fill="#422B0D" d="M68.71 70c-.69 0-1.32 0-1.93.06c-.3 2.06-.42 4.14-.36 6.22c.73 0 1.46-.11 2.18-.2c-.15-2.03-.11-4.06.11-6.08"/>
          <path fill="url(#SVGDPTODdbA)" d="M92.37 93.87A4 4 0 0 0 91.2 92a7.47 7.47 0 0 0-7.74-2.45c0-.09-.06-.19-.1-.27c.63-2.75.36-5.63-.78-8.21a8.08 8.08 0 0 0-6.89-4.3c-2.32-.13-7.01 1.1-7.74 1.14c0 0 .98-3.02 1.17-9.64c.36-12.98-3.01-14.27-5.52-14.67c-3.87-.62-4.48 2.17-4.34 6.63c.07 2.25.33 6.9-1.91 16.67c-1.08 4.71-4.16 8.87-4.28 9.05c-8.7 13-6.86 25.3-1.36 31.8c3.34 3.8 8.13 4.99 13.17 5.29c4.15.26 10.24-.47 14.09-4.23s5.44-13.75 5.53-14.65c1.22.04 2.44-.13 3.6-.52c1.5-.55 2.76-1.61 3.56-3a8.15 8.15 0 0 0 1.09-4.5c0-.78-.13-1.54-.38-2.27"/>
          <path fill="#EB8F00" d="M88.78 101.44s-1.25 1.28-4.47 1.2c-.28-1.26-.72-2.33-1.43-3.18c.83-1.76 2.48-5.43 1.45-8.64c3.91-.44 6.07 1.58 6.56 3.74c.88 3.87-1.14 7.15-4.68 7.95c-2.33.53 3.43 1.87 3.55 2.02c4.26-1.99 4.28-6.78 4.15-9.08c-.56-6.33-6.42-7.65-9.53-6.98c.09-6.39-2.19-12.07-9.37-12.35c-2.63-.1-4.24.14-5.31.49c0 0 .4-1.79.58-6.61c.39-10.41-1.35-17.77-7.58-17.77c-3.77 0-3.86 2.75-4.17 7.4c-.31 4.63.82 13.88-6.57 26.65c-1.99 3.43-5.15 10.74-4.77 16.74c0 0 2.26-9.4 6.54-16.23c7.72-12.33 6.64-22.95 6.81-26.81c.21-4.72.78-5.05 2.16-5.2c4.51-.02 5.67 4.9 5.3 14.38c-.16 4.09-.28 7.16-1.6 8.62c-1.28 1.41-5.53 4.21-6.12 6.11s3.71-3.79 12.45-5.02c5.72-.8 8.77 2.27 8.66 7.79c-5.8-3.87-13.8 1.52-15.43 3.05s-2.12 2.94-2.12 2.94c3.72-1.8 10.35-5.66 14.92-4.03c3.57 1.6 3.37 5.55 1.8 8.66c-4.7-3.14-11.2-.21-13.07 1.41c-1.86 1.63-1.72 2.91-1.72 2.91c8.85-6.12 13.73-1.63 14.75-.3c1.89 2.28 1.92 3.93-.43 7.81c-1.71 2.83-4.39 1.91-4.85 1.47c-1.01-.9-1.57-2.95-.5-3.93c.95-.86 1.81-.96 1.49-1.39c-.33-.43-1.95-.62-3.08.11c-1.85 1.19-1.78 4.82.13 6.89c2.88 2 4.54 1.43 5.77.84c.75-.36.21 2.82-3.34 5.67c-4.17 3.35-20.07 4.75-26.76-5.48c0 0 1.77 9.89 19.03 10.22c7.88.15 12.88-4 14.37-8.88c.58-1.91 1.4-4.1 1.95-6.19s1.69-2.81 2.64-3.01c1.05-.22 2.3-.57 3.1-1.08z"/>
          <path fill="#896024" d="M42.6 43.72a2.55 2.55 0 0 0-2.98 2.05c-.2 1.09.32 2.18 1.29 2.71a2.55 2.55 0 0 0 2.98-2.05c.2-1.09-.32-2.18-1.29-2.71m38.51 0a2.55 2.55 0 0 0-2.98 2.05c-.2 1.09.32 2.18 1.29 2.71a2.55 2.55 0 0 0 2.98-2.05c.2-1.09-.32-2.18-1.29-2.71"/>
        </g>
      </g>
    </g>
    <g transform="translate(1400, 392)">
      <rect id="ITEM_2_BG" x="-310" y="-126" width="620" height="252" rx="32" fill="var(--panel)" fill-opacity="0.95" stroke="var(--accent-2)" stroke-width="3" filter="url(#svgd7bb24a5-shadow)"/>
      <rect x="-310" y="-126" width="620" height="252" rx="18" fill="url(#svgd7bb24a5-universal-surface-sheen)" opacity="0.84"/>
      <rect x="-272" y="-92" width="18" height="184" rx="9" fill="var(--accent-2)" fill-opacity="0.22"/>
      <circle cx="-224" cy="-24" r="90" fill="none" stroke="var(--accent-2)" stroke-width="2.5" stroke-opacity="0.14"/>
      <text id="ITEM_2_HEAD" x="244.0" y="-96.0" text-anchor="end" font-weight="700" font-size="34" fill="var(--semantic-risk)" data-bg-id="ITEM_2_BG" fill-opacity="1.0" style="font-size: 31px; font-family: 'Segoe UI Variable Display', 'Aptos Display', 'Inter', 'Segoe UI', Helvetica, Arial, sans-serif; font-weight: 700; font-kerning: normal; font-feature-settings: &quot;kern&quot; 1, &quot;liga&quot; 1; letter-spacing:-0.4px;" data-final-font-size="31">
        <tspan x="244.0" dy="28.52px">Threat Awareness</tspan>
      </text>
      <rect id="ITEM_2_HEAD_FRAME" x="-156" y="-96" width="400" height="40" fill="none"/>
      <text id="ITEM_2_BODY" x="274.0" y="-4.0" text-anchor="end" font-size="24" fill="var(--primary-text)" opacity="0.92" data-bg-id="ITEM_2_BG" style="font-size: 23px; font-family: 'Segoe UI Variable Text', 'Aptos', 'Inter', 'Segoe UI', Helvetica, Arial, sans-serif; font-weight: 400; font-kerning: normal; font-feature-settings: &quot;kern&quot; 1, &quot;liga&quot; 1;" data-final-font-size="23">
        <tspan x="274.0" dy="33.42px">Active systems reveal aircraft position</tspan>
        <tspan x="274.0" dy="26.45px">to hostile forces</tspan>
      </text>
      <rect id="ITEM_2_BODY_FRAME" x="-156" y="-4" width="430" height="128" fill="none"/>
      <circle id="ITEM_2_PAD" cx="-224" cy="-24" r="52" fill="var(--icon-pad-bg)" opacity="1" fill-opacity="0.9" stroke-width="2" stroke="var(--semantic-risk)" stroke-opacity="0.72" data-badge-layer="pad"/>
      <circle id="ITEM_2_PAD_INNER" cx="-224" cy="-24" r="40.56" fill="var(--semantic-risk)" fill-opacity="0.12" stroke="none" data-badge-layer="tint"/>
      <circle cx="-224" cy="-24" r="42" fill="none" stroke="var(--accent-2)" stroke-width="2.5" stroke-dasharray="6 4" display="none" data-suppressed-decoration="redundant-badge-ring"/>
      <g id="ITEM_2_ICON" transform="translate(-266, -66)" data-icon-size="84" stroke-linecap="round" stroke-linejoin="round" data-badge-treatment="clean">
        <g transform="translate(-3.5593220338983054,-3.5593220338983054) scale(3.7966101694915255)" vector-effect="non-scaling-stroke" stroke-width="2.72" stroke-linecap="round" stroke-linejoin="round" stroke-opacity="1.0">
          <path d="M19.07 4.93A10 10 0 0 0 6.99 3.34" vector-effect="non-scaling-stroke" fill="none" stroke="#f1f5f9"/>
          <path d="M4 6h.01" vector-effect="non-scaling-stroke" fill="none" stroke="#f1f5f9"/>
          <path d="M2.29 9.62A10 10 0 1 0 21.31 8.35" vector-effect="non-scaling-stroke" fill="none" stroke="#f1f5f9"/>
          <path d="M16.24 7.76A6 6 0 1 0 8.23 16.67" vector-effect="non-scaling-stroke" fill="none" stroke="#f1f5f9"/>
          <path d="M12 18h.01" vector-effect="non-scaling-stroke" fill="none" stroke="#f1f5f9"/>
          <path d="M17.99 11.66A6 6 0 0 1 15.77 16.67" vector-effect="non-scaling-stroke" fill="none" stroke="#f1f5f9"/>
          <circle cx="12" cy="12" r="2" vector-effect="non-scaling-stroke" fill="none" stroke="#f1f5f9"/>
          <path d="m13.41 10.59 5.66-5.66" vector-effect="non-scaling-stroke" fill="none" stroke="#f1f5f9"/>
        </g>
      </g>
    </g>
    <g transform="translate(520, 808)">
      <rect id="ITEM_3_BG" x="-310" y="-126" width="620" height="252" rx="32" fill="var(--panel)" fill-opacity="0.95" stroke="var(--accent-3)" stroke-width="3" filter="url(#svgd7bb24a5-shadow)"/>
      <rect x="-310" y="-126" width="620" height="252" rx="18" fill="url(#svgd7bb24a5-universal-surface-sheen)" opacity="0.84"/>
      <rect x="254" y="-92" width="18" height="184" rx="9" fill="var(--accent-3)" fill-opacity="0.22"/>
      <circle cx="224" cy="-24" r="90" fill="none" stroke="var(--accent-3)" stroke-width="2.5" stroke-opacity="0.14"/>
      <text id="ITEM_3_HEAD" x="-244.0" y="-96.0" text-anchor="start" font-weight="700" font-size="34" fill="var(--semantic-positive)" data-bg-id="ITEM_3_BG" fill-opacity="1.0" style="font-size: 31px; font-family: 'Segoe UI Variable Display', 'Aptos Display', 'Inter', 'Segoe UI', Helvetica, Arial, sans-serif; font-weight: 700; font-kerning: normal; font-feature-settings: &quot;kern&quot; 1, &quot;liga&quot; 1; letter-spacing:-0.4px;" data-final-font-size="31">
        <tspan x="-244.0" dy="28.52px">Countermeasure Need</tspan>
      </text>
      <rect id="ITEM_3_HEAD_FRAME" x="-244" y="-96" width="400" height="40" fill="none"/>
      <text id="ITEM_3_BODY" x="-244.0" y="-4.0" text-anchor="start" font-size="24" fill="var(--primary-text)" opacity="0.92" data-bg-id="ITEM_3_BG" style="font-size: 23px; font-family: 'Segoe UI Variable Text', 'Aptos', 'Inter', 'Segoe UI', Helvetica, Arial, sans-serif; font-weight: 400; font-kerning: normal; font-feature-settings: &quot;kern&quot; 1, &quot;liga&quot; 1;" data-final-font-size="23">
        <tspan x="-244.0" dy="33.42px">Passive sensing delays the need</tspan>
        <tspan x="-244.0" dy="26.45px">for active jamming</tspan>
      </text>
      <rect id="ITEM_3_BODY_FRAME" x="-244" y="-4" width="430" height="128" fill="none"/>
      <circle id="ITEM_3_PAD" cx="224" cy="-24" r="52" fill="var(--icon-pad-bg)" opacity="1" fill-opacity="0.9" stroke-width="2" stroke="var(--semantic-positive)" stroke-opacity="0.72" data-badge-layer="pad"/>
      <circle id="ITEM_3_PAD_INNER" cx="224" cy="-24" r="40.56" fill="var(--semantic-positive)" fill-opacity="0.12" stroke="none" data-badge-layer="tint"/>
      <circle cx="224" cy="-24" r="42" fill="none" stroke="var(--accent-3)" stroke-width="2.5" stroke-dasharray="6 4" display="none" data-suppressed-decoration="redundant-badge-ring"/>
      <g id="ITEM_3_ICON" transform="translate(182, -66)" data-icon-size="84" stroke-linecap="round" stroke-linejoin="round" data-badge-treatment="clean">
        <g transform="translate(-6.0,-6.0) scale(3.0)" vector-effect="non-scaling-stroke" fill="#f1f5f9" fill-opacity="1.0" stroke="none">
          <path fill="#f1f5f9" d="M29.121 16.879A2.98 2.98 0 0 0 27.01 16H27a2.98 2.98 0 0 0-2.121.879l-4.901 4.901A2.994 2.994 0 0 0 17 19h-7a5.006 5.006 0 0 0-5 5v.667l-3 3.996l1.6 1.2l3.4-4.53V24a3.003 3.003 0 0 1 3-3h7a1 1 0 0 1 0 2h-4v2h4.929a3.97 3.97 0 0 0 2.828-1.172l5.536-5.535A1 1 0 0 1 27 18h.003a1 1 0 0 1 .704 1.707l-7.414 7.414a2.98 2.98 0 0 1-2.122.879H11v2h7.171a4.97 4.97 0 0 0 3.536-1.465l7.414-7.414a3 3 0 0 0 0-4.242m-7.535-8.293L18 12V2h-2v10l-3.586-3.414L11 10l6 6l6-6z" vector-effect="non-scaling-stroke" stroke="none"/>
        </g>
      </g>
    </g>
    <g transform="translate(1400, 808)">
      <rect id="ITEM_4_BG" x="-310" y="-126" width="620" height="252" rx="32" fill="var(--panel)" fill-opacity="0.95" stroke="var(--accent-4)" stroke-width="3" filter="url(#svgd7bb24a5-shadow)"/>
      <rect x="-310" y="-126" width="620" height="252" rx="18" fill="url(#svgd7bb24a5-universal-surface-sheen)" opacity="0.84"/>
      <rect x="-272" y="-92" width="18" height="184" rx="9" fill="var(--accent-4)" fill-opacity="0.22"/>
      <circle cx="-224" cy="-24" r="90" fill="none" stroke="var(--accent-4)" stroke-width="2.5" stroke-opacity="0.14"/>
      <text id="ITEM_4_HEAD" x="244.0" y="-96.0" text-anchor="end" font-weight="700" font-size="34" fill="var(--semantic-risk)" data-bg-id="ITEM_4_BG" fill-opacity="1.0" style="font-size: 31px; font-family: 'Segoe UI Variable Display', 'Aptos Display', 'Inter', 'Segoe UI', Helvetica, Arial, sans-serif; font-weight: 700; font-kerning: normal; font-feature-settings: &quot;kern&quot; 1, &quot;liga&quot; 1; letter-spacing:-0.4px;" data-final-font-size="31">
        <tspan x="244.0" dy="28.52px">Data Limitations</tspan>
      </text>
      <rect id="ITEM_4_HEAD_FRAME" x="-156" y="-96" width="400" height="40" fill="none"/>
      <text id="ITEM_4_BODY" x="274.0" y="-4.0" text-anchor="end" font-size="24" fill="var(--primary-text)" opacity="0.92" data-bg-id="ITEM_4_BG" style="font-size: 23px; font-family: 'Segoe UI Variable Text', 'Aptos', 'Inter', 'Segoe UI', Helvetica, Arial, sans-serif; font-weight: 400; font-kerning: normal; font-feature-settings: &quot;kern&quot; 1, &quot;liga&quot; 1;" data-final-font-size="23">
        <tspan x="274.0" dy="33.42px">Passive receivers cannot detect radars</tspan>
        <tspan x="274.0" dy="26.45px">that are switched off</tspan>
      </text>
      <rect id="ITEM_4_BODY_FRAME" x="-156" y="-4" width="430" height="128" fill="none"/>
      <circle id="ITEM_4_PAD" cx="-224" cy="-24" r="52" fill="var(--icon-pad-bg)" opacity="1" fill-opacity="0.9" stroke-width="2" stroke="var(--semantic-risk)" stroke-opacity="0.72" data-badge-layer="pad"/>
      <circle id="ITEM_4_PAD_INNER" cx="-224" cy="-24" r="40.56" fill="var(--semantic-risk)" fill-opacity="0.12" stroke="none" data-badge-layer="tint"/>
      <circle cx="-224" cy="-24" r="42" fill="none" stroke="var(--accent-4)" stroke-width="2.5" stroke-dasharray="6 4" display="none" data-suppressed-decoration="redundant-badge-ring"/>
      <g id="ITEM_4_ICON" transform="translate(-266, -66)" data-icon-size="84" stroke-linecap="round" stroke-linejoin="round" data-badge-treatment="clean">
        <g transform="translate(0.0,0.0) scale(3.5)" vector-effect="non-scaling-stroke" stroke-width="2.72" stroke-linecap="round" stroke-linejoin="round" stroke-opacity="1.0">
          <path fill="none" fill-rule="evenodd" d="M22.429 9.80725c-0.4481 -1.60857 -1.338 -3.0594 -2.5687 -4.18794 -1.2271 -1.10731 -2.7113 -1.89063 -4.3179 -2.27888 -0.0755 -0.01846 -0.1552 -0.00689 -0.2223 0.03227 -0.0671 0.03915 -0.1164 0.10283 -0.1375 0.17763 -0.0107 0.03675 -0.014 0.07525 -0.0097 0.11327 0.0043 0.03803 0.0161 0.07483 0.0347 0.10828 0.0185 0.03346 0.0436 0.0629 0.0736 0.08663s0.0644 0.04128 0.1013 0.05164c1.495 0.39389 2.8688 1.15291 3.998 2.20891 1.0991 1.05735 1.8814 2.40041 2.2589 3.8781 0.3191 1.43064 0.3733 2.90764 0.1599 4.35784 -0.196 1.4357 -0.7267 2.8052 -1.5492 3.998 -0.8343 1.3019 -1.9646 2.388 -3.2986 3.1697 -1.3341 0.7817 -2.8341 1.2368 -4.3777 1.3281 -1.5404 0.0802 -3.07865 -0.1945 -4.49617 -0.8027 -1.41752 -0.6083 -2.67646 -1.5339 -3.67976 -2.7055 -0.96577 -1.188 -1.64781 -2.5806 -1.99422 -4.0719 -0.3464 -1.4912 -0.34805 -3.0419 -0.0048 -4.5339 0.30374 -1.47128 0.96641 -2.84468 1.92905 -3.99804 0.96198 -1.11325 2.18926 -1.96582 3.56825 -2.47878 0.08273 -0.03149 0.14992 -0.09402 0.18725 -0.17429s0.04187 -0.17194 0.01265 -0.2555c-0.03149 -0.08274 -0.09402 -0.14992 -0.17429 -0.18725 -0.08027 -0.03734 -0.17194 -0.04188 -0.2555 -0.01265 -1.53964 0.52665 -2.91691 1.44254 -3.99803 2.65869 -1.0521 1.22331 -1.78975 2.6849 -2.14895 4.25792 -0.39989 1.6227 -0.42042 3.3157 -0.05997 4.9476 0.35927 1.6413 1.08729 3.1794 2.12895 4.4977 1.09017 1.3143 2.46924 2.3589 4.02963 3.0524 1.56038 0.6935 3.25991 1.0172 4.96591 0.9457 1.707 -0.105 3.3648 -0.6125 4.838 -1.4812 1.4731 -0.8686 2.7198 -2.0736 3.6379 -3.5164 0.8843 -1.3371 1.4392 -2.8648 1.6192 -4.4578 0.2178 -1.5774 0.133 -3.1819 -0.2499 -4.72765Z" clip-rule="evenodd" vector-effect="non-scaling-stroke" stroke="#f1f5f9"/>
          <path fill="none" fill-rule="evenodd" d="M11.8342 10.5769c0.1054 0.0028 0.2079 -0.0351 0.2861 -0.1058 0.0781 -0.0707 0.1261 -0.1689 0.1337 -0.274 0.14 -0.99954 0.3399 -2.17896 0.4498 -3.39836 0.0483 -0.48826 0.0716 -0.97865 0.07 -1.46928V3.86018c-0.0649 -1.16064 -0.2051 -2.31584 -0.4198 -3.4583 -0.0151 -0.118505 -0.0756 -0.226504 -0.1689 -0.301128 -0.0933 -0.0746238 -0.212 -0.11001336 -0.3309 -0.09867502 -0.1177 0.01498562 -0.2248 0.07593412 -0.2979 0.16955402 -0.073 0.093619 -0.106 0.212315 -0.0919 0.3302 0 0.859579 -0.0799 2.078979 -0.1399 3.448309 0 0.74963 -0.08 1.53924 -0.07 2.31886 0 1.38931 0.1599 2.74864 0.2099 3.8981 -0.0027 0.0512 0.0048 0.1024 0.0219 0.1507 0.0171 0.0484 0.0436 0.0928 0.078 0.1309 0.0344 0.0381 0.0759 0.069 0.1222 0.091 0.0463 0.022 0.0965 0.0346 0.1477 0.0372Z" clip-rule="evenodd" vector-effect="non-scaling-stroke" stroke="#f1f5f9"/>
        </g>
      </g>
    </g>
  </g>
  <text id="SOURCE_NOTE" x="134.0" y="1058.0" fill="var(--muted-text)" opacity="0.88" style="font-family: var(--font-family); font-size: 20px;">Source: Introduction</text>
</svg>
