<?xml version='1.0' encoding='utf-8'?>
<svg xmlns="http://www.w3.org/2000/svg" width="1920" height="1080" viewBox="0 0 1920 1080" data-theme="light">
  <style>
        @font-face {
            font-family: 'Inter';
            src: url('assets/fonts/Inter-Regular.ttf') format('truetype');
            font-weight: 400;
            font-style: normal;
            font-display: swap;
        }
        @font-face {
            font-family: 'Inter';
            src: url('assets/fonts/Inter-Bold.ttf') format('truetype');
            font-weight: 600;
            font-style: normal;
            font-display: swap;
        }
        @font-face {
            font-family: 'Inter';
            src: url('assets/fonts/Inter-Bold.ttf') format('truetype');
            font-weight: 800;
            font-style: normal;
            font-display: swap;
        }
        
:root {
    --background: #f8fafc;
    --panel: #ffffff;
    --primary-text: #0f172a;
    --muted-text: #64748b;
    --inverse-text: #ffffff;
    --border: #e2e8f0;
    --shadow-color: #000000;
    --icon-pad-bg: #1e293b;
    --art-glow: #0891b2;
    --art-glow-opacity: 0.10;
    --art-sheen: #ffffff;
    --art-sheen-opacity: 0.34;
    --art-shadow: #0f172a;
    --art-shadow-opacity: 0.14;
    --art-muted-line: #94a3b8;
    --art-panel-tint: #f1f5f9;
    --font-family: 'Inter', 'Segoe UI', 'Kalam', Roboto, Helvetica, Arial, sans-serif;
    --radius-xl: 16px;
    --font-family-headline: 'Inter', 'Segoe UI', 'Kalam', Roboto, Helvetica, Arial, sans-serif;
    --font-family-body: 'Inter', 'Segoe UI', 'Kalam', Roboto, Helvetica, Arial, sans-serif;
    --font-heading: 'Inter', 'Segoe UI', 'Kalam', Roboto, Helvetica, Arial, sans-serif;
    --font-body: 'Inter', 'Segoe UI', 'Kalam', Roboto, Helvetica, Arial, sans-serif;
    --font-size-h1: 56px;
    --font-size-h2: 40px;
    --font-size-h3: 28px;
    --font-size-body: 24px;
    --font-size-caption: 18px;
    --secondary-text: var(--muted-text);
    --panel-border: var(--border);
    --font-weight-normal: 400;
    --font-weight-medium: 500;
    --font-weight-semibold: 600;
    --font-weight-bold: 700;
    --spacing-gutter-pct: 0.07;
    --spacing-top-pct: 0.15;
    --spacing-bottom-pct: 0.07;
    --spacing-title-y-pct: 0.055;
    --accent-1: #0891b2;
    --accent-2: #db2777;
    --accent-3: #ca8a04;
    --accent-4: #65a30d;
    --accent-5: #ea580c;
    --accent-6: #9333ea;
}
:root[data-theme="dark"] {
    --background: #0f172a;
    --panel: #1e293b;
    --primary-text: #f1f5f9;
    --muted-text: #94a3b8;
    --inverse-text: #0f172a;
    --border: #334155;
    --shadow-color: #000000;
    --icon-pad-bg: #1e293b;
    --art-glow: #7dd3fc;
    --art-glow-opacity: 0.18;
    --art-sheen: #ffffff;
    --art-sheen-opacity: 0.18;
    --art-shadow: #000000;
    --art-shadow-opacity: 0.28;
    --art-muted-line: #64748b;
    --art-panel-tint: #1e293b;
    --accent-1: #22d3ee;
    --accent-2: #f472b6;
    --accent-3: #facc15;
    --accent-4: #a3e635;
    --accent-5: #fb923c;
    --accent-6: #c084fc;
}
:root[data-theme="light"] {
    --background: #f8fafc;
    --panel: #ffffff;
    --primary-text: #0f172a;
    --muted-text: #64748b;
    --inverse-text: #ffffff;
    --border: #e2e8f0;
    --shadow-color: #000000;
    --icon-pad-bg: #1e293b;
    --art-glow: #0891b2;
    --art-glow-opacity: 0.10;
    --art-sheen: #ffffff;
    --art-sheen-opacity: 0.34;
    --art-shadow: #0f172a;
    --art-shadow-opacity: 0.14;
    --art-muted-line: #94a3b8;
    --art-panel-tint: #f1f5f9;
    --accent-1: #0891b2;
    --accent-2: #db2777;
    --accent-3: #ca8a04;
    --accent-4: #65a30d;
    --accent-5: #ea580c;
    --accent-6: #9333ea;
}</style>
  <rect x="0" y="0" width="1.92E+3" height="1.08E+3" fill="#252a34" stroke="none" id="programmatic_background"/>
  <line id="HEADER_DECOR" x1="960.0" x2="1080.0" y1="135.0" y2="135.0" stroke="var(--accent-1)" stroke-width="6" stroke-linecap="round"/>
  <defs>
    <pattern id="svg36b6ae90-napkin-hatch" patternUnits="userSpaceOnUse" width="12" height="12">
      <path d="M -3 12 L 12 -3 M 0 15 L 15 0" fill="none" stroke="var(--primary-text)" stroke-width="1" stroke-opacity="0.05"/>
    </pattern>
    <filter id="svg36b6ae90-shadow" x="-30%" y="-30%" width="160%" height="160%">
      <feDropShadow dx="0" dy="2" stdDeviation="3" flood-color="#000000" flood-opacity="0.08"/>
      <feDropShadow dx="0" dy="6" stdDeviation="10" flood-color="#000000" flood-opacity="0.12"/>
    </filter>
    <radialGradient id="svg36b6ae90-universal-edge-vignette" cx="50%" cy="50%" r="72%">
      <stop offset="0%" stop-color="var(--background)" stop-opacity="0"/>
      <stop offset="72%" stop-color="var(--background)" stop-opacity="0.12"/>
      <stop offset="100%" stop-color="var(--primary-text)" stop-opacity="0.08"/>
    </radialGradient>
    <linearGradient id="svg36b6ae90-universal-surface-sheen" x1="0%" y1="0%" x2="100%" y2="100%">
      <stop offset="0%" stop-color="var(--art-sheen)" stop-opacity="var(--art-sheen-opacity)"/>
      <stop offset="46%" stop-color="var(--art-sheen)" stop-opacity="0.035"/>
      <stop offset="100%" stop-color="var(--art-panel-tint)" stop-opacity="0.14"/>
    </linearGradient>
    <radialGradient id="svg36b6ae90-universal-icon-aura" cx="50%" cy="42%" r="64%">
      <stop offset="0%" stop-color="var(--art-glow)" stop-opacity="var(--art-glow-opacity)"/>
      <stop offset="100%" stop-color="var(--background)" stop-opacity="0"/>
    </radialGradient>
    <linearGradient id="svg36b6ae90-fact-card-sheen" x1="0%" y1="0%" x2="100%" y2="100%">
      <stop offset="0%" stop-color="var(--inverse-text)" stop-opacity="0.18"/>
      <stop offset="54%" stop-color="var(--inverse-text)" stop-opacity="0.04"/>
      <stop offset="100%" stop-color="var(--background)" stop-opacity="0.14"/>
    </linearGradient>
    <radialGradient id="svg36b6ae90-fact-icon-glow" cx="50%" cy="42%" r="62%">
      <stop offset="0%" stop-color="var(--inverse-text)" stop-opacity="0.22"/>
      <stop offset="100%" stop-color="var(--background)" stop-opacity="0"/>
    </radialGradient>
    <filter id="svg36b6ae90-text-glow" x="-20%" y="-20%" width="140%" height="140%">
      <feDropShadow dx="0" dy="0" stdDeviation="2" flood-color="#000000" flood-opacity="0.4"/>
    </filter>
    <marker id="svg36b6ae90-arrowhead" markerWidth="10" markerHeight="7" refX="9" refY="3.5" orient="auto" markerUnits="strokeWidth">
      <polygon points="0 0, 10 3.5, 0 7" fill="var(--muted-text)" opacity="0.6"/>
    </marker>
  </defs>
  <rect width="100%" height="100%" fill="var(--background)" id="CANVAS_BG"/>
  <rect width="100%" height="100%" fill="url(#svg36b6ae90-napkin-hatch)"/>
  <rect id="UNIVERSAL_EDGE_VIGNETTE" width="100%" height="100%" fill="url(#svg36b6ae90-universal-edge-vignette)" opacity="0.62"/>
  <line x1="960" y1="178" x2="960" y2="986" stroke="var(--muted-text)" stroke-width="5" stroke-opacity="0.10" stroke-linecap="round"/>
  <path d="M 360 178 C 620 152 1300 152 1560 178" fill="none" stroke="var(--primary-text)" stroke-width="2" stroke-opacity="0.12" stroke-linecap="round"/>
  <text id="TITLE" x="960.0" y="59" font-size="72" font-weight="800" fill="#0f172a" style="font-size: 60px; font-family: Inter, Segoe UI, Kalam, Roboto, Helvetica, Arial, sans-serif; font-weight: 700; letter-spacing:-1.2px;" text-anchor="middle" data-final-font-size="60">
    <tspan x="960.0" dy="68.00px">OXCART Operational Mission Sequence</tspan>
  </text>
  <rect id="TITLE_FRAME" x="134" y="59" width="1652" height="103" fill="none"/>
  <g transform="translate(960.0, 220.0)">
    <rect id="ITEM_1_BG" x="-600" y="-64" width="1200" height="184" rx="18" fill="var(--accent-3)" stroke="var(--accent-1)" filter="url(#svg36b6ae90-shadow)" stroke-width="3" fill-opacity="1.0"/>
    <g transform="translate(-480.0, 0.0)">
      <circle r="45" fill="var(--background)" opacity="0.3"/>
      <circle id="ITEM_1_PAD" cx="0" cy="0" r="42" fill="var(--icon-pad-bg)" stroke="var(--primary-text)" opacity="0.9" fill-opacity="0.9" stroke-width="2"/>
      <circle id="ITEM_1_PAD_INNER" cx="0" cy="0" r="32.76" fill="var(--accent-3)" fill-opacity="0.22"/>
      <circle cx="0" cy="0" r="34" fill="none" stroke="var(--accent-1)" stroke-width="3" stroke-dasharray="6 4"/>
      <g id="ITEM_1_ICON" transform="translate(-34, -34)" data-icon-size="68" stroke-dasharray="6 4">
        <g transform="translate(-2.881355932203391,-2.88135593220339) scale(3.073446327683616)" vector-effect="non-scaling-stroke" stroke-width="2.53" stroke-linecap="round" stroke-linejoin="round" stroke-opacity="1.0">
          <path d="M20 13c0 5-3.5 7.5-7.66 8.95a1 1 0 0 1-.67-.01C7.5 20.5 4 18 4 13V6a1 1 0 0 1 1-1c2 0 4.5-1.2 6.24-2.72a1.17 1.17 0 0 1 1.52 0C14.51 3.81 17 5 19 5a1 1 0 0 1 1 1z" vector-effect="non-scaling-stroke" fill="none" stroke="#f1f5f9"/>
          <path d="M12 8v4" vector-effect="non-scaling-stroke" fill="none" stroke="#f1f5f9"/>
          <path d="M12 16h.01" vector-effect="non-scaling-stroke" fill="none" stroke="#f1f5f9"/>
        </g>
      </g>
    </g>
    <g transform="translate(-330, -34)">
      <text id="ITEM_1_HEAD" text-anchor="start" font-weight="bold" font-size="29" fill="var(--primary-text)" x="0.0" y="-10.0" data-bg-id="ITEM_1_BG" fill-opacity="1.0" style="font-size: 30px; font-family: Inter, Segoe UI, Kalam, Roboto, Helvetica, Arial, sans-serif; font-weight: 700; letter-spacing:-0.4px;" data-final-font-size="30">
        <tspan x="0.0" dy="33.03px">Base Deployment</tspan>
      </text>
      <rect id="ITEM_1_HEAD_FRAME" x="0" y="-10" width="846" height="42" fill="none"/>
      <text id="ITEM_1_BODY" text-anchor="start" font-size="21" fill="var(--primary-text)" x="0.0" y="30.0" data-bg-id="ITEM_1_BG" style="font-size: 26px; font-family: Inter, Segoe UI, Kalam, Roboto, Helvetica, Arial, sans-serif; font-weight: 400;" data-final-font-size="26">
        <tspan x="0.0" dy="42.18px">A-12s deployed to Kadena Air Base in Okinawa</tspan>
      </text>
      <rect id="ITEM_1_BODY_FRAME" x="0" y="30" width="846" height="114" fill="none"/>
    </g>
  </g>
  <g transform="translate(960.0, 390.0)">
    <rect id="ITEM_2_BG" x="-600" y="-64" width="1200" height="184" rx="18" fill="var(--accent-4)" stroke="var(--accent-2)" filter="url(#svg36b6ae90-shadow)" stroke-width="3" fill-opacity="1.0"/>
    <g transform="translate(-480.0, 0.0)">
      <circle r="45" fill="var(--background)" opacity="0.3"/>
      <circle id="ITEM_2_PAD" cx="0" cy="0" r="42" fill="var(--icon-pad-bg)" stroke="var(--primary-text)" opacity="0.9" fill-opacity="0.9" stroke-width="2"/>
      <circle id="ITEM_2_PAD_INNER" cx="0" cy="0" r="32.76" fill="var(--accent-4)" fill-opacity="0.22"/>
      <circle cx="0" cy="0" r="34" fill="none" stroke="var(--accent-1)" stroke-width="3" stroke-dasharray="6 4"/>
      <g id="ITEM_2_ICON" transform="translate(-34, -34)" data-icon-size="68" stroke-dasharray="6 4">
        <g transform="translate(-6.296296296296296,-6.296296296296292) scale(3.3580246913580245)" vector-effect="non-scaling-stroke" stroke-width="2.53" stroke-linecap="round" stroke-linejoin="round" stroke-opacity="1.0">
          <path d="M14.106 5.553a2 2 0 0 0 1.788 0l3.659-1.83A1 1 0 0 1 21 4.619v12.764a1 1 0 0 1-.553.894l-4.553 2.277a2 2 0 0 1-1.788 0l-4.212-2.106a2 2 0 0 0-1.788 0l-3.659 1.83A1 1 0 0 1 3 19.381V6.618a1 1 0 0 1 .553-.894l4.553-2.277a2 2 0 0 1 1.788 0z" vector-effect="non-scaling-stroke" fill="none" stroke="#f1f5f9"/>
          <path d="M15 5.764v15" vector-effect="non-scaling-stroke" fill="none" stroke="#f1f5f9"/>
          <path d="M9 3.236v15" vector-effect="non-scaling-stroke" fill="none" stroke="#f1f5f9"/>
        </g>
      </g>
    </g>
    <g transform="translate(-330, -34)">
      <text id="ITEM_2_HEAD" text-anchor="start" font-weight="bold" font-size="29" fill="var(--primary-text)" x="0.0" y="-10.0" data-bg-id="ITEM_2_BG" fill-opacity="1.0" style="font-size: 30px; font-family: Inter, Segoe UI, Kalam, Roboto, Helvetica, Arial, sans-serif; font-weight: 700; letter-spacing:-0.4px;" data-final-font-size="30">
        <tspan x="0.0" dy="33.03px">Vietnam Pass</tspan>
      </text>
      <rect id="ITEM_2_HEAD_FRAME" x="0" y="-10" width="846" height="42" fill="none"/>
      <text id="ITEM_2_BODY" text-anchor="start" font-size="21" fill="var(--primary-text)" x="0.0" y="30.0" data-bg-id="ITEM_2_BG" style="font-size: 26px; font-family: Inter, Segoe UI, Kalam, Roboto, Helvetica, Arial, sans-serif; font-weight: 400;" data-final-font-size="26">
        <tspan x="0.0" dy="42.18px">First operational mission over North Vietnam in May 1967</tspan>
      </text>
      <rect id="ITEM_2_BODY_FRAME" x="0" y="30" width="846" height="114" fill="none"/>
    </g>
  </g>
  <g transform="translate(960.0, 560.0)">
    <rect id="ITEM_3_BG" x="-600" y="-64" width="1200" height="184" rx="18" fill="var(--accent-5)" stroke="var(--accent-3)" filter="url(#svg36b6ae90-shadow)" stroke-width="3" fill-opacity="1.0"/>
    <g transform="translate(-480.0, 0.0)">
      <circle r="45" fill="var(--background)" opacity="0.3"/>
      <circle id="ITEM_3_PAD" cx="0" cy="0" r="42" fill="var(--icon-pad-bg)" stroke="var(--primary-text)" opacity="0.9" fill-opacity="0.9" stroke-width="2"/>
      <circle id="ITEM_3_PAD_INNER" cx="0" cy="0" r="32.76" fill="var(--accent-5)" fill-opacity="0.22"/>
      <circle cx="0" cy="0" r="34" fill="none" stroke="var(--accent-2)" stroke-width="3" stroke-dasharray="6 4"/>
      <g id="ITEM_3_ICON" transform="translate(-34, -34)" data-icon-size="68" stroke-dasharray="6 4">
        <g transform="translate(-4.814159292035399,-6.920353982300888) scale(2.4070796460176993)">
          <path d="M20 9L22 6H27V9H30V15L22 16L14 15L15.5646 9.43999C15.6335 9.17999 15.8696 9 16.1353 9H20Z" fill="#CDC4D6"/>
          <path d="M22 16H30V23L17 26L4 23L2.03838 17.2837C1.85708 16.6418 2.34056 16 3.01543 16H22Z" fill="#CDC4D6"/>
          <path d="M24.66 12.99H25.33C25.7 12.99 25.99 12.69 25.99 12.33V11.66C25.99 11.29 25.69 11 25.33 11H24.66C24.29 11 24 11.3 24 11.66V12.33C24 12.7 24.29 12.99 24.66 12.99Z" fill="#26EAFC"/>
          <path d="M4 23L5.801 29.2731C5.9204 29.7013 6.31841 30 6.76617 30H28.995C29.5522 30 30 29.5519 30 29.0043V23H4Z" fill="#CA0B4A"/>
          <path d="M21 11C21.54 11 22 11 22 12C22 12.9821 21.5563 12.99 21.0289 12.9995L21 13H14.5665L15.1242 11H21Z" fill="#00A6ED"/>
          <path d="M15.3362 21H14.6638C14.3017 21 14 20.6983 14 20.3362V19.6638C14 19.3017 14.2931 19 14.6638 19H15.3362C15.6983 19 16 19.2931 16 19.6638V20.3362C16 20.6983 15.7069 21 15.3362 21Z" fill="#00A6ED"/>
          <path d="M18.6638 21H19.3362C19.7069 21 20 20.6983 20 20.3362V19.6638C20 19.2931 19.6983 19 19.3362 19H18.6638C18.2931 19 18 19.3017 18 19.6638V20.3362C18 20.6983 18.2931 21 18.6638 21Z" fill="#00A6ED"/>
          <path d="M23.3362 21H22.6638C22.2931 21 22 20.6983 22 20.3362V19.6638C22 19.3017 22.2931 19 22.6638 19H23.3362C23.6983 19 24 19.2931 24 19.6638V20.3362C24 20.6983 23.7069 21 23.3362 21Z" fill="#00A6ED"/>
          <path d="M26.6638 21H27.3362C27.7069 21 28 20.6983 28 20.3362V19.6638C28 19.2931 27.6983 19 27.3362 19H26.6638C26.2931 19 26 19.3017 26 19.6638V20.3362C26 20.6983 26.2931 21 26.6638 21Z" fill="#00A6ED"/>
          <path d="M25.33 12.99H24.66C24.29 12.99 24 12.7 24 12.33V11.66C24 11.3 24.29 11 24.66 11H25.33C25.69 11 25.99 11.29 25.99 11.66V12.33C25.99 12.69 25.7 12.99 25.33 12.99Z" fill="#00A6ED"/>
          <path d="M30.01 27.6699C28.26 27.6699 28.26 28.7899 26.5 28.7899C24.75 28.7899 24.75 27.6699 22.99 27.6699C21.24 27.6699 21.24 28.7899 19.49 28.7899C17.74 28.7899 17.74 27.6699 15.99 27.6699C14.24 27.6699 14.24 28.7899 12.49 28.7899C10.74 28.7899 10.74 27.6699 8.99 27.6699C7.24 27.6699 7.24 28.7899 5.5 28.7899C3.75 28.7899 3.75 27.6699 2 27.6699V29.9899H30L30.01 27.6699Z" fill="#00A6ED"/>
          <path d="M26.5962 4C26.8077 4 26.9904 4.18091 26.9904 4.41206H27V6H22L22.6635 4.84422C22.9615 4.3216 23.5096 4 24.0962 4H26.5962Z" fill="#533566"/>
          <path d="M5 16H30V15H5.58C5.26 15 5 15.2626 5 15.5859V16Z" fill="#533566"/>
        </g>
      </g>
    </g>
    <g transform="translate(-330, -34)">
      <text id="ITEM_3_HEAD" text-anchor="start" font-weight="bold" font-size="29" fill="var(--primary-text)" x="0.0" y="-10.0" data-bg-id="ITEM_3_BG" fill-opacity="1.0" style="font-size: 30px; font-family: Inter, Segoe UI, Kalam, Roboto, Helvetica, Arial, sans-serif; font-weight: 700; letter-spacing:-0.4px;" data-final-font-size="30">
        <tspan x="0.0" dy="33.03px">Pueblo Recovery</tspan>
      </text>
      <rect id="ITEM_3_HEAD_FRAME" x="0" y="-10" width="846" height="42" fill="none"/>
      <text id="ITEM_3_BODY" text-anchor="start" font-size="21" fill="var(--primary-text)" x="0.0" y="30.0" data-bg-id="ITEM_3_BG" style="font-size: 26px; font-family: Inter, Segoe UI, Kalam, Roboto, Helvetica, Arial, sans-serif; font-weight: 400;" data-final-font-size="26">
        <tspan x="0.0" dy="42.18px">Located the seized USS Pueblo at Wonsan Bay</tspan>
      </text>
      <rect id="ITEM_3_BODY_FRAME" x="0" y="30" width="846" height="114" fill="none"/>
    </g>
  </g>
  <g transform="translate(960.0, 730.0)">
    <rect id="ITEM_4_BG" x="-600" y="-64" width="1200" height="184" rx="18" fill="var(--accent-6)" stroke="var(--accent-4)" filter="url(#svg36b6ae90-shadow)" stroke-width="3" fill-opacity="1.0"/>
    <g transform="translate(-480.0, 0.0)">
      <circle r="45" fill="var(--background)" opacity="0.3"/>
      <circle id="ITEM_4_PAD" cx="0" cy="0" r="42" fill="var(--icon-pad-bg)" stroke="var(--primary-text)" opacity="0.9" fill-opacity="0.9" stroke-width="2"/>
      <circle id="ITEM_4_PAD_INNER" cx="0" cy="0" r="32.76" fill="var(--accent-6)" fill-opacity="0.22"/>
      <circle cx="0" cy="0" r="34" fill="none" stroke="var(--accent-3)" stroke-width="3" stroke-dasharray="6 4"/>
      <g id="ITEM_4_ICON" transform="translate(-34, -34)" data-icon-size="68" stroke-dasharray="6 4">
        <g transform="translate(-7.555555555555555,-6.296296296296296) scale(0.3148148148148148)" vector-effect="non-scaling-stroke" stroke-width="2.53" stroke-linecap="round" stroke-linejoin="round" stroke-opacity="1.0">
          <circle cx="128" cy="128" r="96" fill="none" stroke="#f1f5f9" vector-effect="non-scaling-stroke"/>
          <line x1="128" y1="224" x2="232" y2="224" fill="none" stroke="#f1f5f9" vector-effect="non-scaling-stroke"/>
          <circle cx="128" cy="80" r="16" fill="none" stroke="#f1f5f9" vector-effect="non-scaling-stroke"/>
          <circle cx="128" cy="176" r="16" fill="none" stroke="#f1f5f9" vector-effect="non-scaling-stroke"/>
          <circle cx="176" cy="128" r="16" fill="none" stroke="#f1f5f9" vector-effect="non-scaling-stroke"/>
          <circle cx="80" cy="128" r="16" fill="none" stroke="#f1f5f9" vector-effect="non-scaling-stroke"/>
        </g>
      </g>
    </g>
    <g transform="translate(-330, -34)">
      <text id="ITEM_4_HEAD" text-anchor="start" font-weight="bold" font-size="29" fill="var(--inverse-text)" x="0.0" y="-10.0" data-bg-id="ITEM_4_BG" fill-opacity="1.0" style="font-size: 30px; font-family: Inter, Segoe UI, Kalam, Roboto, Helvetica, Arial, sans-serif; font-weight: 700; letter-spacing:-0.4px;" data-final-font-size="30">
        <tspan x="0.0" dy="33.03px">Film Processing</tspan>
      </text>
      <rect id="ITEM_4_HEAD_FRAME" x="0" y="-10" width="846" height="42" fill="none"/>
      <text id="ITEM_4_BODY" text-anchor="start" font-size="21" fill="var(--inverse-text)" x="0.0" y="30.0" data-bg-id="ITEM_4_BG" style="font-size: 26px; font-family: Inter, Segoe UI, Kalam, Roboto, Helvetica, Arial, sans-serif; font-weight: 400;" data-final-font-size="26">
        <tspan x="0.0" dy="42.18px">Rapid photo processing completed within 24 hours for comm and ers</tspan>
      </text>
      <rect id="ITEM_4_BODY_FRAME" x="0" y="30" width="846" height="114" fill="none"/>
    </g>
  </g>
  <g transform="translate(960.0, 900.0)">
    <rect id="ITEM_5_BG" x="-600" y="-64" width="1200" height="184" rx="18" fill="var(--accent-1)" stroke="var(--accent-5)" filter="url(#svg36b6ae90-shadow)" stroke-width="3" fill-opacity="1.0"/>
    <g transform="translate(-480.0, 0.0)">
      <circle r="45" fill="var(--background)" opacity="0.3"/>
      <circle id="ITEM_5_PAD" cx="0" cy="0" r="42" fill="var(--icon-pad-bg)" stroke="var(--primary-text)" opacity="0.9" fill-opacity="0.9" stroke-width="2"/>
      <circle id="ITEM_5_PAD_INNER" cx="0" cy="0" r="32.76" fill="var(--accent-1)" fill-opacity="0.22"/>
      <circle cx="0" cy="0" r="34" fill="none" stroke="var(--accent-4)" stroke-width="3" stroke-dasharray="6 4"/>
      <g id="ITEM_5_ICON" transform="translate(-34, -34)" data-icon-size="68" stroke-dasharray="6 4">
        <g transform="translate(-4.814159292035399,-4.212389380530979) scale(2.4070796460176993)">
          <path d="M29.2001 2.94972C28.253 2.00263 26.4999 1.9525 25.3817 2.52547C24.4693 2.83877 23.5081 3.19209 22.5278 3.58828L22.5383 3.59883C19.9627 4.69286 16.1108 6.63769 13.0279 9.49984C10.8637 11.5091 9.62366 13.0559 8.79313 14.4647L3.49489 16.4149C2.80991 16.6671 2.6171 17.5444 3.13322 18.0605C6.84572 21.773 10.5582 25.4855 14.2707 29.198C14.7868 29.7141 15.6641 29.5213 15.9163 28.8363L18.1197 22.8504C19.7284 21.8921 21.3425 20.6853 23.0279 18.9999C25.4183 16.6095 27.3936 12.4408 28.5413 9.64309L28.5496 9.65145C28.9506 8.66094 29.3079 7.68963 29.6243 6.76812C30.1973 5.64991 30.3642 4.11384 29.2001 2.94972Z" fill="#CA0B4A"/>
          <path d="M23.2987 4.3645C20.7818 5.4041 16.8206 7.34324 13.7083 10.2327C11.6937 12.103 10.5374 13.5272 9.76899 14.7821C8.99995 16.0381 8.59391 17.1628 8.10621 18.5226L8.10371 18.5296C7.93354 19.0041 7.75311 19.5072 7.54517 20.0441L12.1006 24.5996C15.7031 23.1209 18.8412 21.7724 22.3208 18.2928C24.6722 15.9414 26.6597 11.6505 27.7751 8.87168L23.2987 4.3645Z" fill="#F4F4F4"/>
          <path d="M24.5278 11.25C24.5278 13.0449 23.0727 14.5 21.2778 14.5C19.4828 14.5 18.0278 13.0449 18.0278 11.25C18.0278 9.45507 19.4828 8 21.2778 8C23.0727 8 24.5278 9.45507 24.5278 11.25Z" fill="#9B9B9B"/>
          <path d="M23.5278 11.25C23.5278 12.4926 22.5204 13.5 21.2778 13.5C20.0351 13.5 19.0278 12.4926 19.0278 11.25C19.0278 10.0074 20.0351 9 21.2778 9C22.5204 9 23.5278 10.0074 23.5278 11.25Z" fill="#83CBFF"/>
          <path d="M2.45122 29.6108C1.74411 28.9037 2.02779 24 4.52777 23C4.52777 23 7.02777 22 8.63878 23.6005C10.2498 25.2011 9.52776 26.9999 9.52776 26.9999C8.82068 29.1212 5.81033 29.9645 5.45679 29.6109C5.26153 29.4157 5.61314 29.0602 5.45679 28.9038C5.30045 28.7475 5.05904 28.9259 4.39613 29.2574C3.92473 29.4931 2.73406 29.8937 2.45122 29.6108Z" fill="#FF8257"/>
          <path d="M6.08839 21.0607C6.67417 20.4749 7.62392 20.4749 8.20971 21.0607L11.7452 24.5962C12.331 25.182 12.331 26.1317 11.7452 26.7175C11.1595 27.3033 10.2097 27.3033 9.62392 26.7175L6.08839 23.182C5.5026 22.5962 5.5026 21.6465 6.08839 21.0607Z" fill="#533566"/>
          <path d="M15.5351 18.722C15.977 17.5214 14.8098 16.3542 13.6092 16.7961L6.49489 19.4149C5.80991 19.6671 5.6171 20.5444 6.13322 21.0605L11.2707 26.198C11.7868 26.7141 12.6641 26.5213 12.9163 25.8363L15.5351 18.722Z" fill="#F92F60"/>
        </g>
      </g>
    </g>
    <g transform="translate(-330, -34)">
      <text id="ITEM_5_HEAD" text-anchor="start" font-weight="bold" font-size="29" fill="var(--primary-text)" x="0.0" y="-10.0" data-bg-id="ITEM_5_BG" fill-opacity="1.0" style="font-size: 30px; font-family: Inter, Segoe UI, Kalam, Roboto, Helvetica, Arial, sans-serif; font-weight: 700; letter-spacing:-0.4px;" data-final-font-size="30">
        <tspan x="0.0" dy="33.03px">Missile Defense</tspan>
      </text>
      <rect id="ITEM_5_HEAD_FRAME" x="0" y="-10" width="846" height="42" fill="none"/>
      <text id="ITEM_5_BODY" text-anchor="start" font-size="21" fill="var(--primary-text)" x="0.0" y="30.0" data-bg-id="ITEM_5_BG" style="font-size: 26px; font-family: Inter, Segoe UI, Kalam, Roboto, Helvetica, Arial, sans-serif; font-weight: 400;" data-final-font-size="26">
        <tspan x="0.0" dy="42.18px">Survived missile fire during North Korea reconnaissance flights</tspan>
      </text>
      <rect id="ITEM_5_BODY_FRAME" x="0" y="30" width="846" height="114" fill="none"/>
    </g>
  </g>
</svg>
