<?xml version='1.0' encoding='utf-8'?>
<svg xmlns="http://www.w3.org/2000/svg" width="1920" height="1080" viewBox="0 0 1920 1080" data-theme="dark">
  <style>
        @font-face {
            font-family: 'Inter';
            src: url('assets/fonts/Inter-Regular.ttf') format('truetype');
            font-weight: 400;
            font-style: normal;
            font-display: swap;
        }
        @font-face {
            font-family: 'Inter';
            src: url('assets/fonts/Inter-Bold.ttf') format('truetype');
            font-weight: 600;
            font-style: normal;
            font-display: swap;
        }
        @font-face {
            font-family: 'Inter';
            src: url('assets/fonts/Inter-Bold.ttf') format('truetype');
            font-weight: 800;
            font-style: normal;
            font-display: swap;
        }
        
:root {
    --background: #0f172a;
    --panel: #1e293b;
    --primary-text: #f1f5f9;
    --muted-text: #94a3b8;
    --inverse-text: #0f172a;
    --border: #334155;
    --shadow-color: #000000;
    --icon-pad-bg: #1e293b;
    --art-glow: #7dd3fc;
    --art-glow-opacity: 0.18;
    --art-sheen: #ffffff;
    --art-sheen-opacity: 0.18;
    --art-shadow: #000000;
    --art-shadow-opacity: 0.28;
    --art-muted-line: #64748b;
    --art-panel-tint: #1e293b;
    --font-family: 'Inter', 'Segoe UI', 'Kalam', Roboto, Helvetica, Arial, sans-serif;
    --radius-xl: 16px;
    --font-family-headline: 'Inter', 'Segoe UI', 'Kalam', Roboto, Helvetica, Arial, sans-serif;
    --font-family-body: 'Inter', 'Segoe UI', 'Kalam', Roboto, Helvetica, Arial, sans-serif;
    --font-heading: 'Inter', 'Segoe UI', 'Kalam', Roboto, Helvetica, Arial, sans-serif;
    --font-body: 'Inter', 'Segoe UI', 'Kalam', Roboto, Helvetica, Arial, sans-serif;
    --font-size-h1: 56px;
    --font-size-h2: 40px;
    --font-size-h3: 28px;
    --font-size-body: 24px;
    --font-size-caption: 18px;
    --secondary-text: var(--muted-text);
    --panel-border: var(--border);
    --font-weight-normal: 400;
    --font-weight-medium: 500;
    --font-weight-semibold: 600;
    --font-weight-bold: 700;
    --spacing-gutter-pct: 0.07;
    --spacing-top-pct: 0.15;
    --spacing-bottom-pct: 0.07;
    --spacing-title-y-pct: 0.055;
    --accent-1: #fbbf24;
    --accent-2: #fb923c;
    --accent-3: #f87171;
    --accent-4: #a3e635;
    --accent-5: #4ade80;
    --accent-6: #d4a574;
}
:root[data-theme="dark"] {
    --background: #0f172a;
    --panel: #1e293b;
    --primary-text: #f1f5f9;
    --muted-text: #94a3b8;
    --inverse-text: #0f172a;
    --border: #334155;
    --shadow-color: #000000;
    --icon-pad-bg: #1e293b;
    --art-glow: #7dd3fc;
    --art-glow-opacity: 0.18;
    --art-sheen: #ffffff;
    --art-sheen-opacity: 0.18;
    --art-shadow: #000000;
    --art-shadow-opacity: 0.28;
    --art-muted-line: #64748b;
    --art-panel-tint: #1e293b;
    --accent-1: #fbbf24;
    --accent-2: #fb923c;
    --accent-3: #f87171;
    --accent-4: #a3e635;
    --accent-5: #4ade80;
    --accent-6: #d4a574;
}
:root[data-theme="light"] {
    --background: #f8fafc;
    --panel: #ffffff;
    --primary-text: #0f172a;
    --muted-text: #64748b;
    --inverse-text: #ffffff;
    --border: #e2e8f0;
    --shadow-color: #000000;
    --icon-pad-bg: #1e293b;
    --art-glow: #0891b2;
    --art-glow-opacity: 0.10;
    --art-sheen: #ffffff;
    --art-sheen-opacity: 0.34;
    --art-shadow: #0f172a;
    --art-shadow-opacity: 0.14;
    --art-muted-line: #94a3b8;
    --art-panel-tint: #f1f5f9;
    --accent-1: #d97706;
    --accent-2: #ea580c;
    --accent-3: #dc2626;
    --accent-4: #65a30d;
    --accent-5: #16a34a;
    --accent-6: #92400e;
}</style>
  <rect x="0" y="0" width="1.92E+3" height="1.08E+3" fill="#252a34" stroke="none" id="programmatic_background"/>
  <line id="HEADER_DECOR" x1="960.0" x2="1080.0" y1="75.0" y2="75.0" stroke="var(--accent-1)" stroke-width="6" stroke-linecap="round"/>
  <defs>
    <filter id="svgb276dac9-neon-glow" x="-50%" y="-50%" width="200%" height="200%">
      <feGaussianBlur stdDeviation="6" result="blur"/>
      <feComposite in="SourceGraphic" in2="blur" operator="over"/>
    </filter>
    <radialGradient id="svgb276dac9-universal-edge-vignette" cx="50%" cy="50%" r="72%">
      <stop offset="0%" stop-color="var(--background)" stop-opacity="0"/>
      <stop offset="72%" stop-color="var(--background)" stop-opacity="0.12"/>
      <stop offset="100%" stop-color="var(--primary-text)" stop-opacity="0.08"/>
    </radialGradient>
    <linearGradient id="svgb276dac9-universal-surface-sheen" x1="0%" y1="0%" x2="100%" y2="100%">
      <stop offset="0%" stop-color="var(--art-sheen)" stop-opacity="var(--art-sheen-opacity)"/>
      <stop offset="46%" stop-color="var(--art-sheen)" stop-opacity="0.035"/>
      <stop offset="100%" stop-color="var(--art-panel-tint)" stop-opacity="0.14"/>
    </linearGradient>
    <radialGradient id="svgb276dac9-universal-icon-aura" cx="50%" cy="42%" r="64%">
      <stop offset="0%" stop-color="var(--art-glow)" stop-opacity="var(--art-glow-opacity)"/>
      <stop offset="100%" stop-color="var(--background)" stop-opacity="0"/>
    </radialGradient>
    <radialGradient id="svgb276dac9-tree-roots-art-glow" cx="50%" cy="52%" r="68%">
      <stop offset="0%" stop-color="var(--inverse-text)" stop-opacity="0.14"/>
      <stop offset="100%" stop-color="var(--background)" stop-opacity="0"/>
    </radialGradient>
    <linearGradient id="svgb276dac9-tree-roots-art-sheen" x1="16%" y1="0%" x2="86%" y2="100%">
      <stop offset="0%" stop-color="var(--inverse-text)" stop-opacity="0.22"/>
      <stop offset="52%" stop-color="var(--inverse-text)" stop-opacity="0.035"/>
      <stop offset="100%" stop-color="var(--background)" stop-opacity="0.14"/>
    </linearGradient>
    <filter id="svgb276dac9-text-glow" x="-20%" y="-20%" width="140%" height="140%">
      <feDropShadow dx="0" dy="0" stdDeviation="2" flood-color="#000000" flood-opacity="0.4"/>
    </filter>
    <filter id="svgb276dac9-shadow" x="-30%" y="-30%" width="160%" height="160%">
      <feDropShadow dx="0" dy="2" stdDeviation="3" flood-color="#000000" flood-opacity="0.08"/>
      <feDropShadow dx="0" dy="6" stdDeviation="10" flood-color="#000000" flood-opacity="0.12"/>
    </filter>
    <marker id="svgb276dac9-arrowhead" markerWidth="10" markerHeight="7" refX="9" refY="3.5" orient="auto" markerUnits="strokeWidth">
      <polygon points="0 0, 10 3.5, 0 7" fill="var(--muted-text)" opacity="0.6"/>
    </marker>
  </defs>
  <rect width="100%" height="100%" fill="var(--background)" id="CANVAS_BG"/>
  <ellipse id="TREE-ROOTS_ART_GLOW" cx="960" cy="600" rx="720" ry="390" fill="url(#svgb276dac9-tree-roots-art-glow)" opacity="0.90"/>
  <rect id="UNIVERSAL_EDGE_VIGNETTE" width="100%" height="100%" fill="url(#svgb276dac9-universal-edge-vignette)" opacity="0.62"/>
  <!-- Subtle dirt/background texture behind roots -->
  <rect x="0" y="280" width="1920" height="800" fill="var(--primary-text)" opacity="0.04"/>
  <g transform="translate(0, 0)">
    <!-- Ground Line -->
    <path d="M 0 280 L 1920 280" fill="none" stroke="var(--primary-text)" stroke-width="4" stroke-dasharray="10 20" opacity="0.3"/>
    <!-- Tree Canopy -->
    <g id="TREE_CANOPY" opacity="0.58">
      <circle cx="900.0" cy="210" r="70" fill="var(--panel)" stroke="var(--primary-text)" stroke-width="2"/>
      <circle cx="1020.0" cy="210" r="70" fill="var(--panel)" stroke="var(--primary-text)" stroke-width="2"/>
      <circle cx="960.0" cy="190" r="80" fill="var(--panel)" stroke="var(--primary-text)" stroke-width="2"/>
      <circle cx="960.0" cy="160" r="40" fill="var(--panel)" stroke="var(--primary-text)" stroke-width="2"/>
    </g>
    <!-- Tree Trunk -->
    <path d="M 910.0 280 C 910.0 235, 895.0 190, 900.0 140 L 1020.0 140 C 1025.0 190, 1010.0 235, 1010.0 280 Z" fill="var(--panel)" stroke="var(--primary-text)" stroke-width="2" filter="url(#svgb276dac9-neon-glow)"/>
    <!-- Trunk abstract rings -->
    <ellipse cx="960.0" cy="242" rx="34.0" ry="44" fill="none" stroke="var(--background)" stroke-width="6" opacity="0.3"/>
    <rect id="TITLE_FRAME" x="660.0" y="20" width="600" height="80" fill="none"/>
    <text id="TITLE" x="960.0" y="59" font-size="34" font-weight="900" fill="#f1f5f9" text-anchor="middle" alignment-baseline="middle" style="font-size: 60px; font-family: Inter, Segoe UI, Kalam, Roboto, Helvetica, Arial, sans-serif; font-weight: 700; letter-spacing:-1.2px;" data-final-font-size="60">
      <tspan x="960.0" dy="68.00px">Reasons for Official Silence</tspan>
    </text>
  </g>
  <g transform="translate(0, 0)">
    <!-- Root Core Line -->
    <path d="M 900.0 280 C 812.0 400.0, 548.0 420.0, 460.0 480" fill="none" stroke="var(--accent-1)" stroke-width="10" stroke-linecap="round" filter="url(#svgb276dac9-neon-glow)" opacity="0.9"/>
    <path d="M 900.0 280 C 812.0 400.0, 548.0 420.0, 460.0 480" fill="none" stroke="var(--background)" stroke-width="4" stroke-linecap="round"/>
    <!-- Secondary stylistic root tendril -->
    <path d="M 900.0 280 C 804.0 376.0, 516.0 392.0, 420.0 440" fill="none" stroke="var(--accent-1)" stroke-width="3" filter="url(#svgb276dac9-neon-glow)" opacity="0.45"/>
    <!-- Deep Root Terminal -->
    <circle cx="460.0" cy="480" r="53" fill="none" stroke="var(--accent-1)" stroke-width="2" stroke-dasharray="8 4" opacity="0.6"/>
    <circle cx="460.0" cy="480" r="45" fill="var(--panel)" stroke="var(--accent-1)" stroke-width="4" filter="url(#svgb276dac9-neon-glow)"/>
    <circle id="ITEM_1_PAD" cx="460.00" cy="480.00" r="40.00" fill="var(--icon-pad-bg)" stroke="var(--primary-text)" stroke-width="2" opacity="0.9"/>
    <circle id="ITEM_1_PAD_INNER" cx="460.00" cy="480.00" r="31.20" fill="var(--accent-1)" fill-opacity="0.22"/>
    <g id="ITEM_1_ICON" transform="translate(435.0, 455)" data-icon-size="50" stroke-dasharray="6 4">
      <g transform="translate(-8.844067796610172,-13.074576271186448) scale(2.820338983050848)" vector-effect="non-scaling-stroke" fill="#f1f5f9" fill-opacity="1.0" stroke="none">
        <path fill="#f1f5f9" d="M9 6v5H7V7H5v4H3V9H1v12h2v-2h2v2h2v-2h2v2h2v-2h2v2h2v-2h2v2h2v-2h2v2h2V9h-2v2h-2V7h-2v4h-2V6h-2v5h-2V6zm-6 7h2v4H3zm4 0h2v4H7zm4 0h2v4h-2zm4 0h2v4h-2zm4 0h2v4h-2z" vector-effect="non-scaling-stroke" stroke="none"/>
      </g>
    </g>
    <rect id="ITEM_1_TEXT_BG" x="37.0" y="414.0" width="376.0" height="222.0" rx="22" fill="var(--panel)" fill-opacity="0.97" stroke="var(--primary-text)" stroke-opacity="0.22" stroke-width="2.2"/>
    <text id="ITEM_1_HEAD" data-bg-id="ITEM_1_TEXT_BG" x="395.0" y="430.0" font-weight="bold" font-size="25" fill="var(--accent-1)" text-anchor="end" fill-opacity="1.0" stroke="none" style="font-size: 30px; font-family: Inter, Segoe UI, Kalam, Roboto, Helvetica, Arial, sans-serif; font-weight: 700; letter-spacing:-0.4px;" data-final-font-size="30">
      <tspan x="395.0" dy="28.25px">Active Protection</tspan>
    </text>
    <rect id="ITEM_1_HEAD_FRAME" x="95.0" y="430" width="300" height="40" fill="none"/>
    <text id="ITEM_1_BODY" data-bg-id="ITEM_1_TEXT_BG" x="395.0" y="500.0" font-size="17" fill="var(--primary-text)" text-anchor="end" style="font-size: 26px; font-family: Inter, Segoe UI, Kalam, Roboto, Helvetica, Arial, sans-serif; font-weight: 400;" data-final-font-size="26">
      <tspan x="395.0" dy="20.88px">The program genuinely</tspan>
      <tspan x="395.0" dy="29.90px">exists under</tspan>
      <tspan x="395.0" dy="29.90px">unacknowledged</tspan>
      <tspan x="395.0" dy="29.90px">status rules</tspan>
    </text>
    <rect id="ITEM_1_BODY_FRAME" x="55" y="500" width="340" height="120" fill="none"/>
  </g>
  <g transform="translate(0, 0)">
    <!-- Root Core Line -->
    <path d="M 930.0 280 C 886.0 550.0, 754.0 595.0, 710.0 730" fill="none" stroke="var(--accent-2)" stroke-width="10" stroke-linecap="round" filter="url(#svgb276dac9-neon-glow)" opacity="0.9"/>
    <path d="M 930.0 280 C 886.0 550.0, 754.0 595.0, 710.0 730" fill="none" stroke="var(--background)" stroke-width="4" stroke-linecap="round"/>
    <!-- Secondary stylistic root tendril -->
    <path d="M 930.0 280 C 878.0 526.0, 722.0 567.0, 670.0 690" fill="none" stroke="var(--accent-2)" stroke-width="3" filter="url(#svgb276dac9-neon-glow)" opacity="0.45"/>
    <!-- Deep Root Terminal -->
    <circle cx="710.0" cy="730" r="53" fill="none" stroke="var(--accent-2)" stroke-width="2" stroke-dasharray="8 4" opacity="0.6"/>
    <circle cx="710.0" cy="730" r="45" fill="var(--panel)" stroke="var(--accent-2)" stroke-width="4" filter="url(#svgb276dac9-neon-glow)"/>
    <circle id="ITEM_2_PAD" cx="710.00" cy="730.00" r="40.00" fill="var(--icon-pad-bg)" stroke="var(--primary-text)" stroke-width="2" opacity="0.9"/>
    <circle id="ITEM_2_PAD_INNER" cx="710.00" cy="730.00" r="31.20" fill="var(--accent-2)" fill-opacity="0.22"/>
    <g id="ITEM_2_ICON" transform="translate(685.0, 705)" data-icon-size="50" stroke-dasharray="6 4">
      <g transform="translate(-6.200000000000003,-6.2) scale(4.457142857142857)" vector-effect="non-scaling-stroke" stroke-width="2.31" stroke-linecap="round" stroke-linejoin="round" stroke-opacity="1.0">
        <path id="Vector" fill="none" d="M1.5 5h11v7c0 0.2652 -0.1054 0.5196 -0.2929 0.7071S11.7652 13 11.5 13h-9c-0.26522 0 -0.51957 -0.1054 -0.70711 -0.2929C1.60536 12.5196 1.5 12.2652 1.5 12V5Z" vector-effect="non-scaling-stroke" stroke="#f1f5f9"/>
        <path id="Vector_2" fill="none" d="M13.5 4V2c0 -0.55228 -0.4477 -1 -1 -1l-11 0c-0.552285 0 -1 0.44772 -1 1v2c0 0.55228 0.447715 1 1 1l11 0c0.5523 0 1 -0.44772 1 -1Z" vector-effect="non-scaling-stroke" stroke="#f1f5f9"/>
        <path id="Vector_3" stroke="#f1f5f9" d="M1.5 5h11v7c0 0.2652 -0.1054 0.5196 -0.2929 0.7071S11.7652 13 11.5 13h-9c-0.26522 0 -0.51957 -0.1054 -0.70711 -0.2929C1.60536 12.5196 1.5 12.2652 1.5 12V5v0Z" vector-effect="non-scaling-stroke" fill="none"/>
        <path id="Vector_4" stroke="#f1f5f9" d="M13.5 4V2c0 -0.55228 -0.4477 -1 -1 -1l-11 0c-0.552285 0 -1 0.44772 -1 1v2c0 0.55228 0.447715 1 1 1l11 0c0.5523 0 1 -0.44772 1 -1Z" vector-effect="non-scaling-stroke" fill="none"/>
        <path id="Vector_5" stroke="#f1f5f9" d="M5.5 8h3" vector-effect="non-scaling-stroke" fill="none"/>
      </g>
    </g>
    <rect id="ITEM_2_TEXT_BG" x="247.0" y="664.0" width="416.0" height="222.0" rx="22" fill="var(--panel)" fill-opacity="0.97" stroke="var(--primary-text)" stroke-opacity="0.22" stroke-width="2.2"/>
    <text id="ITEM_2_HEAD" data-bg-id="ITEM_2_TEXT_BG" x="645.0" y="680.0" font-weight="bold" font-size="25" fill="var(--accent-2)" text-anchor="end" fill-opacity="1.0" stroke="none" style="font-size: 30px; font-family: Inter, Segoe UI, Kalam, Roboto, Helvetica, Arial, sans-serif; font-weight: 700; letter-spacing:-0.4px;" data-final-font-size="30">
      <tspan x="645.0" dy="28.25px">Legacy Secrecy</tspan>
    </text>
    <rect id="ITEM_2_HEAD_FRAME" x="325.0" y="680" width="320" height="40" fill="none"/>
    <text id="ITEM_2_BODY" data-bg-id="ITEM_2_TEXT_BG" x="645.0" y="750.0" font-size="17" fill="var(--primary-text)" text-anchor="end" style="font-size: 26px; font-family: Inter, Segoe UI, Kalam, Roboto, Helvetica, Arial, sans-serif; font-weight: 400;" data-final-font-size="26">
      <tspan x="645.0" dy="32.84px">The program was active</tspan>
      <tspan x="645.0" dy="29.90px">but remains classified today</tspan>
    </text>
    <rect id="ITEM_2_BODY_FRAME" x="265" y="750" width="380" height="120" fill="none"/>
  </g>
  <g transform="translate(0, 0)">
    <!-- Root Core Line -->
    <path d="M 960.0 280 C 960.0 670.0, 960.0 735.0, 960.0 930" fill="none" stroke="var(--accent-3)" stroke-width="10" stroke-linecap="round" filter="url(#svgb276dac9-neon-glow)" opacity="0.9"/>
    <path d="M 960.0 280 C 960.0 670.0, 960.0 735.0, 960.0 930" fill="none" stroke="var(--background)" stroke-width="4" stroke-linecap="round"/>
    <!-- Secondary stylistic root tendril -->
    <path d="M 960.0 280 C 952.0 646.0, 928.0 707.0, 920.0 890" fill="none" stroke="var(--accent-3)" stroke-width="3" filter="url(#svgb276dac9-neon-glow)" opacity="0.45"/>
    <!-- Deep Root Terminal -->
    <circle cx="960.0" cy="930" r="53" fill="none" stroke="var(--accent-3)" stroke-width="2" stroke-dasharray="8 4" opacity="0.6"/>
    <circle cx="960.0" cy="930" r="45" fill="var(--panel)" stroke="var(--accent-3)" stroke-width="4" filter="url(#svgb276dac9-neon-glow)"/>
    <circle id="ITEM_3_PAD" cx="960.00" cy="930.00" r="40.00" fill="var(--icon-pad-bg)" stroke="var(--primary-text)" stroke-width="2" opacity="0.9"/>
    <circle id="ITEM_3_PAD_INNER" cx="960.00" cy="930.00" r="31.20" fill="var(--accent-3)" fill-opacity="0.22"/>
    <g id="ITEM_3_ICON" transform="translate(935.0, 905)" data-icon-size="50" stroke-dasharray="6 4">
      <g transform="translate(-6.200000000000003,-6.200000000000003) scale(4.457142857142857)" vector-effect="non-scaling-stroke" stroke-width="2.31" stroke-linecap="round" stroke-linejoin="round" stroke-opacity="1.0">
        <path id="Vector" fill="none" d="M6 11.5a5.5 5.5 0 1 0 0 -11 5.5 5.5 0 0 0 0 11Z" vector-effect="non-scaling-stroke" stroke="#f1f5f9"/>
        <path id="Vector_2" stroke="#f1f5f9" d="M6 11.5a5.5 5.5 0 1 0 0 -11 5.5 5.5 0 0 0 0 11Z" vector-effect="non-scaling-stroke" fill="none"/>
        <path id="Vector_3" stroke="#f1f5f9" d="M13.5 13.5 10 10" vector-effect="non-scaling-stroke" fill="none"/>
      </g>
    </g>
    <rect id="ITEM_3_TEXT_BG" x="532.0" y="824.0" width="356.0" height="210.0" rx="22" fill="var(--panel)" fill-opacity="0.97" stroke="var(--primary-text)" stroke-opacity="0.22" stroke-width="2.2"/>
    <text id="ITEM_3_HEAD" data-bg-id="ITEM_3_TEXT_BG" x="870.0" y="840.0" font-weight="bold" font-size="25" fill="var(--accent-3)" text-anchor="end" fill-opacity="1.0" stroke="none" style="font-size: 30px; font-family: Inter, Segoe UI, Kalam, Roboto, Helvetica, Arial, sans-serif; font-weight: 700; letter-spacing:-0.4px;" data-final-font-size="30">
      <tspan x="870.0" dy="28.25px">Inaccurate Claims</tspan>
    </text>
    <rect id="ITEM_3_HEAD_FRAME" x="570.0" y="840" width="300" height="40" fill="none"/>
    <text id="ITEM_3_BODY" data-bg-id="ITEM_3_TEXT_BG" x="870.0" y="910.0" font-size="17" fill="var(--primary-text)" text-anchor="end" style="font-size: 26px; font-family: Inter, Segoe UI, Kalam, Roboto, Helvetica, Arial, sans-serif; font-weight: 400;" data-final-font-size="26">
      <tspan x="870.0" dy="22.06px">The reported name or</tspan>
      <tspan x="870.0" dy="29.90px">description is factually</tspan>
      <tspan x="870.0" dy="29.90px">incorrect</tspan>
    </text>
    <rect id="ITEM_3_BODY_FRAME" x="550" y="910" width="320" height="96" fill="none"/>
  </g>
  <g transform="translate(0, 0)">
    <!-- Root Core Line -->
    <path d="M 990.0 280 C 1034.0 550.0, 1166.0 595.0, 1210.0 730" fill="none" stroke="var(--accent-4)" stroke-width="10" stroke-linecap="round" filter="url(#svgb276dac9-neon-glow)" opacity="0.9"/>
    <path d="M 990.0 280 C 1034.0 550.0, 1166.0 595.0, 1210.0 730" fill="none" stroke="var(--background)" stroke-width="4" stroke-linecap="round"/>
    <!-- Secondary stylistic root tendril -->
    <path d="M 990.0 280 C 1042.0 526.0, 1198.0 567.0, 1250.0 690" fill="none" stroke="var(--accent-4)" stroke-width="3" filter="url(#svgb276dac9-neon-glow)" opacity="0.45"/>
    <!-- Deep Root Terminal -->
    <circle cx="1210.0" cy="730" r="53" fill="none" stroke="var(--accent-4)" stroke-width="2" stroke-dasharray="8 4" opacity="0.6"/>
    <circle cx="1210.0" cy="730" r="45" fill="var(--panel)" stroke="var(--accent-4)" stroke-width="4" filter="url(#svgb276dac9-neon-glow)"/>
    <circle id="ITEM_4_PAD" cx="1210.00" cy="730.00" r="40.00" fill="var(--icon-pad-bg)" stroke="var(--primary-text)" stroke-width="2" opacity="0.9"/>
    <circle id="ITEM_4_PAD_INNER" cx="1210.00" cy="730.00" r="31.20" fill="var(--accent-4)" fill-opacity="0.22"/>
    <g id="ITEM_4_ICON" transform="translate(1185.0, 705)" data-icon-size="50" stroke-dasharray="6 4">
      <g transform="translate(-11.977777777777781,-11.977777777777781) scale(3.081481481481482)" vector-effect="non-scaling-stroke" stroke-width="2.31" stroke-linecap="round" stroke-linejoin="round" stroke-opacity="1.0">
        <rect width="18" height="18" x="3" y="3" rx="2" ry="2" vector-effect="non-scaling-stroke" fill="none" stroke="#f1f5f9"/>
        <line x1="3" x2="21" y1="9" y2="9" vector-effect="non-scaling-stroke" fill="none" stroke="#f1f5f9"/>
        <line x1="3" x2="21" y1="15" y2="15" vector-effect="non-scaling-stroke" fill="none" stroke="#f1f5f9"/>
        <line x1="9" x2="9" y1="9" y2="21" vector-effect="non-scaling-stroke" fill="none" stroke="#f1f5f9"/>
        <line x1="15" x2="15" y1="9" y2="21" vector-effect="non-scaling-stroke" fill="none" stroke="#f1f5f9"/>
      </g>
    </g>
    <rect id="ITEM_4_TEXT_BG" x="1257.0" y="664.0" width="416.0" height="222.0" rx="22" fill="var(--panel)" fill-opacity="0.97" stroke="var(--primary-text)" stroke-opacity="0.22" stroke-width="2.2"/>
    <text id="ITEM_4_HEAD" data-bg-id="ITEM_4_TEXT_BG" x="1275.0" y="680.0" font-weight="bold" font-size="25" fill="var(--accent-4)" text-anchor="start" fill-opacity="1.0" stroke="none" style="font-size: 30px; font-family: Inter, Segoe UI, Kalam, Roboto, Helvetica, Arial, sans-serif; font-weight: 700; letter-spacing:-0.4px;" data-final-font-size="30">
      <tspan x="1275.0" dy="28.25px">Non-Existent Projects</tspan>
    </text>
    <rect id="ITEM_4_HEAD_FRAME" x="1275.0" y="680" width="320" height="40" fill="none"/>
    <text id="ITEM_4_BODY" data-bg-id="ITEM_4_TEXT_BG" x="1275.0" y="750.0" font-size="17" fill="var(--primary-text)" text-anchor="start" style="font-size: 26px; font-family: Inter, Segoe UI, Kalam, Roboto, Helvetica, Arial, sans-serif; font-weight: 400;" data-final-font-size="26">
      <tspan x="1275.0" dy="32.84px">The alleged program never</tspan>
      <tspan x="1275.0" dy="29.90px">existed in any capacity</tspan>
    </text>
    <rect id="ITEM_4_BODY_FRAME" x="1275" y="750" width="380" height="120" fill="none"/>
  </g>
  <g transform="translate(0, 0)">
    <!-- Root Core Line -->
    <path d="M 1020.0 280 C 1108.0 400.0, 1372.0 420.0, 1460.0 480" fill="none" stroke="var(--accent-5)" stroke-width="10" stroke-linecap="round" filter="url(#svgb276dac9-neon-glow)" opacity="0.9"/>
    <path d="M 1020.0 280 C 1108.0 400.0, 1372.0 420.0, 1460.0 480" fill="none" stroke="var(--background)" stroke-width="4" stroke-linecap="round"/>
    <!-- Secondary stylistic root tendril -->
    <path d="M 1020.0 280 C 1116.0 376.0, 1404.0 392.0, 1500.0 440" fill="none" stroke="var(--accent-5)" stroke-width="3" filter="url(#svgb276dac9-neon-glow)" opacity="0.45"/>
    <!-- Deep Root Terminal -->
    <circle cx="1460.0" cy="480" r="53" fill="none" stroke="var(--accent-5)" stroke-width="2" stroke-dasharray="8 4" opacity="0.6"/>
    <circle cx="1460.0" cy="480" r="45" fill="var(--panel)" stroke="var(--accent-5)" stroke-width="4" filter="url(#svgb276dac9-neon-glow)"/>
    <circle id="ITEM_5_PAD" cx="1460.00" cy="480.00" r="40.00" fill="var(--icon-pad-bg)" stroke="var(--primary-text)" stroke-width="2" opacity="0.9"/>
    <circle id="ITEM_5_PAD_INNER" cx="1460.00" cy="480.00" r="31.20" fill="var(--accent-5)" fill-opacity="0.22"/>
    <g id="ITEM_5_ICON" transform="translate(1435.0, 455)" data-icon-size="50" stroke-dasharray="6 4">
      <g transform="translate(-8.866666666666674,-9.400000000000007) scale(0.13333333333333336)" vector-effect="non-scaling-stroke" fill="#f1f5f9" fill-opacity="1.0" stroke="none">
        <path fill="#f1f5f9" d="M283.406 26c-31.262-.124-67.23 14.174-87.406 24.813c-14.187 7.48-63.924 37.248-106.594 45.5c-55.05 10.643-86.878 63.63-54.594 90.156c53.676 44.1 55.533 101.236 15.844 143.186c-43.832 46.33 1.16 113.166 63.844 105.625s89.117.543 121.03 32.44c41.408 41.38 131.457 24.757 153.595-32.595c10.275-26.614 24.304-56.372 58.594-68.563c40.316-14.328 52.335-59.373 26.217-90.625c-19.376-23.183-21.61-47.184 4.875-95.468c21.756-39.664 4.657-83.827-55.937-80.44c-45.002 2.515-64.425-27.456-97.156-59.374C314.866 30.074 299.78 26.066 283.405 26zm-20.312 76.188c87.992 0 159.53 71.508 159.53 159.5c0 87.994-71.538 159.53-159.53 159.53s-159.53-71.536-159.53-159.53c0-87.995 71.538-159.5 159.53-159.5m0 18.687c-77.892 0-140.813 62.918-140.813 140.813s62.922 140.843 140.814 140.843c77.89 0 140.844-62.948 140.844-140.842c0-77.892-62.953-140.813-140.844-140.813zm-9.344 19.188h18.688v12.562l32.218 9.78l-32 9.72h-.78v97.47H253.75V172.53l-33.344-10.124l33.344-10.125zm-51.875 40.343c9.892-.023 20.71 2.28 32.313 7.156v20.594c-14.94-7.682-27.267-9.843-36.657-8.844c-11.21 1.194-18.696 6.513-23.468 14.125c-9.34 14.902-7.106 39.607 13.907 56.157h-25.657c-14.936-20.91-15.937-47.15-4.063-66.094c7.603-12.13 20.8-20.992 37.313-22.75c2.064-.22 4.16-.34 6.312-.344m122.438 0c2.153.005 4.28.124 6.343.344c16.513 1.758 29.71 10.62 37.313 22.75c11.872 18.944 10.872 45.183-4.064 66.094H338.22c21.01-16.55 23.245-41.255 13.905-56.156c-4.77-7.613-12.258-12.932-23.47-14.125c-9.69-1.032-22.498 1.294-38.092 9.593v-20.75c12.145-5.308 23.443-7.774 33.75-7.75m-71.438 16.875q.078.049.156.095l-.155.25v-.344zm-81.563 91h183.563v18.44h-34.28v17.81h34.28v18.69H171.312v-18.69h36.47v-17.81h-36.47zm55.157 18.44v17.81h27.28v-17.81zm45.968 0v17.81h29.468v-17.81h-29.47zm-9.157 50.03c7.64 0 13.845 6.204 13.845 13.844s-6.204 13.844-13.844 13.844s-13.842-6.204-13.842-13.844s6.203-13.844 13.843-13.844zM457 410.5c-7.208.234-14.82 2.62-21.5 7.688c-34.04 25.825-9.88 74.987 31.938 40.437c32.292-26.678 13.11-48.89-10.438-48.125" vector-effect="non-scaling-stroke" stroke="none"/>
      </g>
    </g>
    <rect id="ITEM_5_TEXT_BG" x="1507.0" y="414.0" width="376.0" height="222.0" rx="22" fill="var(--panel)" fill-opacity="0.97" stroke="var(--primary-text)" stroke-opacity="0.22" stroke-width="2.2"/>
    <text id="ITEM_5_HEAD" data-bg-id="ITEM_5_TEXT_BG" x="1525.0" y="430.0" font-weight="bold" font-size="25" fill="var(--accent-5)" text-anchor="start" fill-opacity="1.0" stroke="none" style="font-size: 30px; font-family: Inter, Segoe UI, Kalam, Roboto, Helvetica, Arial, sans-serif; font-weight: 700; letter-spacing:-0.4px;" data-final-font-size="30">
      <tspan x="1525.0" dy="28.25px">Standard Policy</tspan>
    </text>
    <rect id="ITEM_5_HEAD_FRAME" x="1525.0" y="430" width="320" height="40" fill="none"/>
    <text id="ITEM_5_BODY" data-bg-id="ITEM_5_TEXT_BG" x="1525.0" y="500.0" font-size="17" fill="var(--primary-text)" text-anchor="start" style="font-size: 26px; font-family: Inter, Segoe UI, Kalam, Roboto, Helvetica, Arial, sans-serif; font-weight: 400;" data-final-font-size="26">
      <tspan x="1525.0" dy="26.86px">Silence reflects standard</tspan>
      <tspan x="1525.0" dy="29.90px">security policy for all</tspan>
      <tspan x="1525.0" dy="29.90px">protected info</tspan>
    </text>
    <rect id="ITEM_5_BODY_FRAME" x="1525" y="500" width="340" height="120" fill="none"/>
  </g>
</svg>
